<svg width="54" height="54" viewBox="0 0 54 54" fill="none" xmlns="http://www.w3.org/2000/svg">
<path d="M16.7937 43.0953H4.00988C3.80527 43.0953 3.61016 43.0109 3.46988 42.8612C3.33066 42.7114 3.25894 42.511 3.27266 42.3064L3.8675 33.62C3.88754 33.3321 4.07316 33.0811 4.34316 32.9798C4.61316 32.8775 4.91797 32.9429 5.12363 33.1465C6.53586 34.5481 8.41004 35.3191 10.4013 35.3191C12.3915 35.3191 14.2657 34.5481 15.6789 33.1475C15.969 32.8606 16.4362 32.8627 16.7231 33.1517C17.01 33.4418 17.0079 33.909 16.7189 34.1959C15.0271 35.8728 12.7838 36.7957 10.4023 36.7957C8.52922 36.7957 6.74258 36.2251 5.24281 35.1662L4.8009 41.6187H15.9996L15.6705 37.1659C15.6399 36.7588 15.9458 36.4054 16.3518 36.3748C16.7558 36.3453 17.1123 36.6501 17.1428 37.0562L17.531 42.3011C17.5457 42.5057 17.4751 42.7072 17.3359 42.858C17.1945 43.0099 16.9994 43.0953 16.7937 43.0953Z" fill="#333333"/>
<path d="M10.4012 32.4337C7.85836 32.4337 5.78906 30.3644 5.78906 27.8215C5.78906 26.0571 6.77098 24.474 8.35301 23.6893C8.99215 23.3718 9.68086 23.2104 10.4012 23.2104C12.9441 23.2104 15.0134 25.2797 15.0134 27.8226C15.0134 28.5419 14.853 29.2317 14.5356 29.8708C13.7488 31.4518 12.1646 32.4337 10.4012 32.4337ZM10.4012 24.687C9.91184 24.687 9.44355 24.7967 9.01008 25.0119C7.93324 25.5455 7.26562 26.6224 7.26562 27.8215C7.26562 29.5502 8.67152 30.9571 10.4012 30.9571C11.6004 30.9571 12.6772 30.2895 13.213 29.2137C13.4282 28.7803 13.5368 28.312 13.5368 27.8215C13.5368 26.0929 12.1298 24.687 10.4012 24.687Z" fill="#333333"/>
<path d="M10.4011 36.7959C8.01856 36.7959 5.77418 35.872 4.08352 34.1951C2.36965 32.4981 1.42676 30.2347 1.42676 27.8216C1.42676 22.873 5.4525 18.8462 10.4011 18.8462C11.4136 18.8462 12.4092 19.0139 13.3595 19.3461C15.9192 20.2384 17.9811 22.3013 18.8766 24.8632C19.2077 25.8135 19.3765 26.8091 19.3765 27.8216C19.3765 30.2347 18.4325 32.4991 16.7176 34.1961C15.027 35.8731 12.7836 36.7959 10.4011 36.7959ZM10.4011 20.3228C6.26672 20.3228 2.90332 23.6872 2.90332 27.8216C2.90332 29.8371 3.69223 31.7281 5.12344 33.1456C6.53567 34.5473 8.40985 35.3194 10.4011 35.3194C12.3913 35.3194 14.2655 34.5484 15.6788 33.1478C17.111 31.7292 17.8999 29.8381 17.8999 27.8216C17.8999 26.9747 17.7597 26.1425 17.4823 25.3494C16.7345 23.2094 15.0122 21.4861 12.8733 20.7404C12.0802 20.463 11.248 20.3228 10.4011 20.3228Z" fill="#333333"/>
<path d="M10.4012 32.4337C7.85836 32.4337 5.78906 30.3644 5.78906 27.8215C5.78906 26.0571 6.77098 24.474 8.35301 23.6893C8.99215 23.3718 9.68086 23.2104 10.4012 23.2104C12.9441 23.2104 15.0134 25.2797 15.0134 27.8226C15.0134 28.5419 14.853 29.2317 14.5356 29.8708C13.7488 31.4518 12.1646 32.4337 10.4012 32.4337ZM10.4012 24.687C9.91184 24.687 9.44355 24.7967 9.01008 25.0119C7.93324 25.5455 7.26562 26.6224 7.26562 27.8215C7.26562 29.5502 8.67152 30.9571 10.4012 30.9571C11.6004 30.9571 12.6772 30.2895 13.213 29.2137C13.4282 28.7803 13.5368 28.312 13.5368 27.8215C13.5368 26.0929 12.1298 24.687 10.4012 24.687Z" fill="#333333"/>
<path d="M18.1807 25.8439C18.1322 25.8439 18.0826 25.8386 18.0331 25.8291C17.7778 25.7774 17.569 25.595 17.4836 25.3492C16.7358 23.2092 15.0135 21.4859 12.8746 20.7402C12.6288 20.6548 12.4464 20.446 12.3947 20.1907C12.343 19.9355 12.4284 19.6718 12.6215 19.4967L20.5369 12.2975C20.8385 12.0232 21.3058 12.0454 21.58 12.347C21.8542 12.6487 21.832 13.1159 21.5304 13.3901L14.464 19.8174C16.1515 20.6791 17.5447 22.0723 18.4075 23.7608L26.4706 14.8962C24.6755 14.1558 23.3371 12.5738 22.9289 10.6131C22.8456 10.2134 23.1019 9.82316 23.5016 9.73984C23.9003 9.65652 24.2916 9.9128 24.3749 10.3125C24.7409 12.0728 26.1742 13.4734 27.9408 13.7983C28.2045 13.8468 28.4207 14.0345 28.5072 14.2887C28.5936 14.5429 28.5346 14.8234 28.3542 15.0217L18.7292 25.6034C18.5847 25.7584 18.3864 25.8439 18.1807 25.8439Z" fill="#333333"/>
<path d="M27.1421 11.9104C26.9702 11.9104 26.7972 11.8503 26.658 11.729L26.5578 11.6425C26.4038 11.5085 26.3121 11.3166 26.3047 11.113C26.2973 10.9095 26.3743 10.7112 26.5177 10.5667C26.6559 10.4275 26.8457 10.3463 27.043 10.3452C27.044 10.3452 27.044 10.3452 27.0451 10.3452C27.2402 10.3452 27.43 10.4201 27.5693 10.5583C27.5861 10.5751 27.603 10.591 27.6199 10.6068L27.6547 10.6405C27.9437 10.9179 27.9574 11.3756 27.6874 11.671C27.5408 11.8302 27.3425 11.9104 27.1421 11.9104Z" fill="#333333"/>
<path d="M28.7569 15.3488C28.3899 15.3488 28.0239 15.315 27.6706 15.2496C25.2849 14.8109 23.4223 12.9905 22.9277 10.6132C22.8454 10.2145 22.8032 9.80531 22.8032 9.39504C22.8032 6.11285 25.4737 3.44238 28.7569 3.44238C29.1651 3.44238 29.4952 3.7725 29.4952 4.18066C29.4952 4.58883 29.1651 4.91895 28.7569 4.91895C26.2879 4.91895 24.2798 6.92707 24.2798 9.39504C24.2798 9.70406 24.3114 10.0131 24.3737 10.3126C24.7396 12.0718 26.1729 13.4725 27.9395 13.7973C28.2053 13.8469 28.4806 13.8722 28.7569 13.8722C29.3212 13.8722 29.8696 13.7688 30.3885 13.5653C31.477 13.1392 32.3735 12.2828 32.8481 11.2133C33.1044 10.6385 33.2341 10.0268 33.2341 9.39398C33.2341 8.36566 32.8765 7.3616 32.2279 6.56637C31.9706 6.25102 32.017 5.7859 32.3334 5.5275C32.6487 5.27016 33.1138 5.31656 33.3722 5.63297C34.236 6.69082 34.7117 8.02711 34.7117 9.39398C34.7117 10.2356 34.5387 11.0488 34.1981 11.8134C33.5674 13.2341 32.3756 14.3732 30.9285 14.9395C30.2367 15.2116 29.5058 15.3488 28.7569 15.3488Z" fill="#333333"/>
<path d="M31.0718 5.45996C30.6636 5.45996 30.3335 5.12984 30.3335 4.72168C30.3335 4.31352 30.6636 3.9834 31.0718 3.9834H31.0728C31.481 3.9834 31.8111 4.31352 31.8111 4.72168C31.8111 5.12984 31.4799 5.45996 31.0718 5.45996Z" fill="#333333"/>
<path d="M28.7569 12.5341C27.9786 12.5341 27.2308 12.2472 26.6528 11.7252L26.5579 11.6429C26.5146 11.606 26.4767 11.5638 26.444 11.5184C25.9103 10.9373 25.6182 10.1874 25.6182 9.39641C25.6182 8.55898 25.9441 7.77113 26.5368 7.1784C26.5463 7.16891 26.5558 7.15941 26.5663 7.15098C27.157 6.57617 27.9332 6.25977 28.7569 6.25977C30.1459 6.25977 31.3525 7.15203 31.7586 8.47988C31.8493 8.7752 31.8957 9.08422 31.8957 9.39746C31.8957 10.2349 31.5698 11.0227 30.977 11.6165C30.3811 12.2082 29.5933 12.5341 28.7569 12.5341ZM27.602 10.5945L27.6273 10.6167C27.6316 10.6198 27.6347 10.623 27.6379 10.6262C27.9448 10.9046 28.3424 11.0575 28.7559 11.0575C29.1988 11.0575 29.6165 10.8846 29.9318 10.5703C30.244 10.257 30.417 9.83938 30.417 9.39535C30.417 9.22871 30.3927 9.06629 30.3453 8.9102C30.1301 8.20672 29.491 7.73422 28.7559 7.73422C28.3129 7.73422 27.8963 7.90719 27.5809 8.22148C27.5746 8.22781 27.5672 8.23414 27.5609 8.24047C27.2593 8.5516 27.0947 8.96082 27.0947 9.3943C27.0947 9.83305 27.2645 10.2486 27.5736 10.5618C27.5831 10.5734 27.5925 10.584 27.602 10.5945Z" fill="#333333"/>
<path d="M28.7569 12.5337C27.9754 12.5337 27.2266 12.2447 26.6465 11.7195C26.6412 11.7142 26.6359 11.71 26.6307 11.7047L26.6022 11.6773C26.5769 11.653 26.5516 11.6288 26.5263 11.6035C25.9388 11.0065 25.6182 10.2239 25.6182 9.39494C25.6182 8.55752 25.9441 7.76967 26.5368 7.17693C26.5463 7.16744 26.5558 7.15795 26.5663 7.14951C27.157 6.57471 27.9332 6.2583 28.7569 6.2583C30.1459 6.2583 31.3525 7.15057 31.7586 8.47842C31.8493 8.77373 31.8957 9.08275 31.8957 9.396C31.8957 10.2334 31.5698 11.0213 30.977 11.6151C30.3811 12.2078 29.5933 12.5337 28.7569 12.5337ZM27.6442 10.631C27.9501 10.9053 28.3445 11.0571 28.7559 11.0571C29.1988 11.0571 29.6165 10.8842 29.9318 10.5699C30.244 10.2566 30.417 9.83896 30.417 9.39494C30.417 9.2283 30.3927 9.06588 30.3453 8.90979C30.1301 8.20631 29.491 7.73381 28.7559 7.73381C28.3129 7.73381 27.8963 7.90678 27.5809 8.22107C27.5746 8.2274 27.5672 8.23373 27.5609 8.24006C27.2593 8.55119 27.0947 8.96041 27.0947 9.39389C27.0947 9.83264 27.2645 10.2482 27.5736 10.5614C27.5862 10.573 27.602 10.5888 27.6189 10.6057L27.6442 10.631Z" fill="#333333"/>
<path d="M38.34 21.7219C38.1628 21.7219 37.9898 21.6586 37.8538 21.5394L30.1714 14.8084C29.9774 14.6386 29.8867 14.3802 29.931 14.1261C29.9753 13.8719 30.1493 13.6599 30.3898 13.566C31.4782 13.1399 32.3736 12.2835 32.8482 11.2151C32.9505 10.9852 33.1625 10.8228 33.4125 10.7848C33.6614 10.7468 33.9124 10.8386 34.0791 11.0284L40.7278 18.6169C40.8871 18.7994 40.9472 19.0483 40.8881 19.2835C40.8291 19.5187 40.6582 19.7096 40.4314 19.795C39.7765 20.0407 39.2681 20.5628 39.0382 21.2273C38.958 21.4593 38.7671 21.6365 38.5298 21.6998C38.4666 21.7135 38.4033 21.7219 38.34 21.7219ZM31.9602 14.4119L38.1175 19.8066C38.3611 19.4543 38.6627 19.1474 39.0097 18.8953L33.6519 12.7813C33.2016 13.4289 32.6246 13.9858 31.9602 14.4119Z" fill="#333333"/>
<path d="M36.1747 31.7549H33.1245C32.7163 31.7549 32.3862 31.4247 32.3862 31.0166V24.7159C32.3862 24.4448 32.5349 24.1949 32.7733 24.0662L37.82 21.3388C38.0488 21.2154 38.3262 21.2206 38.5488 21.3546C38.7724 21.4875 38.9095 21.729 38.9095 21.9884C38.9095 22.828 39.3366 23.5821 40.0528 24.0113C40.2806 24.1474 40.4166 24.3963 40.4114 24.661C40.405 24.9258 40.2574 25.1683 40.0243 25.2938L36.9129 26.975V31.0155C36.9129 31.4237 36.5828 31.7549 36.1747 31.7549ZM33.8628 30.2783H35.4364V26.5352C35.4364 26.2641 35.5851 26.0142 35.8235 25.8855L38.3758 24.506C38.0288 24.1063 37.7672 23.6369 37.608 23.1317L33.8628 25.1557V30.2783Z" fill="#333333"/>
<path d="M49.3982 31.7548H46.3481C45.9399 31.7548 45.6098 31.4247 45.6098 31.0165V26.976L42.5006 25.2959C42.2675 25.1704 42.1198 24.9289 42.1135 24.6631C42.1072 24.3984 42.2443 24.1505 42.471 24.0134C43.1861 23.5831 43.6133 22.8279 43.6133 21.9947C43.6133 21.7342 43.7504 21.4906 43.974 21.3577C44.1976 21.2248 44.4739 21.2153 44.7028 21.3398L49.7494 24.0672C49.9878 24.1959 50.1365 24.4458 50.1365 24.7169V31.0176C50.1365 31.4236 49.8064 31.7548 49.3982 31.7548ZM47.0874 30.2782H48.661V25.1567L44.9158 23.1327C44.7576 23.639 44.495 24.1073 44.149 24.508L46.7003 25.8865C46.9387 26.0152 47.0874 26.2652 47.0874 26.5362V30.2782Z" fill="#333333"/>
<path d="M41.2627 25.8221C40.5676 25.8221 39.8863 25.6333 39.2925 25.2768C38.1461 24.5891 37.4331 23.3309 37.4331 21.9946C37.4342 21.5643 37.5048 21.1466 37.6419 20.7459C38.0174 19.6627 38.8443 18.8126 39.9127 18.4118C40.3409 18.2484 40.7965 18.165 41.2627 18.165C43.3689 18.165 45.0859 19.88 45.0912 21.9872V21.9883V21.9946C45.0912 23.3309 44.3793 24.5891 43.2328 25.2779C42.6369 25.6343 41.9567 25.8221 41.2627 25.8221ZM41.2627 19.6416C40.9769 19.6416 40.6974 19.6922 40.4347 19.7924C39.7766 20.0392 39.2683 20.5613 39.0383 21.2257C38.955 21.4715 38.9107 21.7299 38.9097 21.9904C38.9097 22.8278 39.3368 23.5809 40.0529 24.0101C40.4179 24.2295 40.8355 24.3445 41.2627 24.3445C41.6898 24.3445 42.1075 24.2295 42.4735 24.0101C43.1875 23.5809 43.6146 22.8257 43.6146 21.9925L44.3529 21.9862L43.6146 21.9872C43.6115 20.6952 42.5568 19.6416 41.2627 19.6416Z" fill="#333333"/>
<path d="M46.3493 38.8523H36.1758C35.7676 38.8523 35.4375 38.5222 35.4375 38.114V28.9414C35.4375 28.5332 35.7676 28.2031 36.1758 28.2031H46.3493C46.7575 28.2031 47.0876 28.5332 47.0876 28.9414V38.114C47.0876 38.5222 46.7564 38.8523 46.3493 38.8523ZM36.913 37.3757H45.61V29.6797H36.913V37.3757Z" fill="#333333"/>
<path d="M30.689 43.4897C30.6404 43.4897 30.5919 43.4844 30.5445 43.475C30.4981 43.4655 30.4517 43.4507 30.4063 43.4328C30.362 43.4138 30.3198 43.3916 30.2797 43.3653C30.2386 43.3378 30.2017 43.3073 30.1669 43.2735C30.0298 43.1353 29.9507 42.9455 29.9507 42.7514C29.9507 42.7029 29.956 42.6544 29.9654 42.6069C29.9749 42.5595 29.9886 42.5131 30.0076 42.4688C30.0256 42.4245 30.0488 42.3812 30.0751 42.3412C30.1026 42.3011 30.1331 42.2631 30.1669 42.2294C30.2017 42.1946 30.2386 42.164 30.2797 42.1376C30.3198 42.1102 30.362 42.088 30.4063 42.0691C30.4517 42.0511 30.4981 42.0364 30.5445 42.0269C30.7849 41.9794 31.0402 42.0575 31.211 42.2294C31.2458 42.2631 31.2764 42.3011 31.3028 42.3412C31.3302 42.3812 31.3524 42.4245 31.3713 42.4688C31.3893 42.5131 31.404 42.5595 31.4135 42.6069C31.423 42.6544 31.4272 42.7029 31.4272 42.7514C31.4272 42.9455 31.3492 43.1353 31.211 43.2735C31.0739 43.4106 30.883 43.4897 30.689 43.4897Z" fill="#333333"/>
<path d="M51.8344 50.5574H30.689C30.2808 50.5574 29.9507 50.2273 29.9507 49.8191V44.9486C29.9507 44.5404 30.2808 44.2103 30.689 44.2103C31.0971 44.2103 31.4272 44.5404 31.4272 44.9486V49.0808H51.0951V38.8535H31.4272V40.5547C31.4272 40.9629 31.0971 41.293 30.689 41.293C30.2808 41.293 29.9507 40.9629 29.9507 40.5547V38.1152C29.9507 37.7071 30.2808 37.377 30.689 37.377H51.8333C52.2415 37.377 52.5716 37.7071 52.5716 38.1152V49.8191C52.5727 50.2262 52.2415 50.5574 51.8344 50.5574Z" fill="#333333"/>
<path d="M18.6382 50.5576H2.16504C1.75688 50.5576 1.42676 50.2275 1.42676 49.8193V42.3574C1.42676 41.9493 1.75688 41.6191 2.16504 41.6191H18.6382C19.0464 41.6191 19.3765 41.9493 19.3765 42.3574V49.8193C19.3765 50.2264 19.0464 50.5576 18.6382 50.5576ZM2.90332 49.0811H17.8999V43.0957H2.90332V49.0811Z" fill="#333333"/>
</svg>
