<svg xmlns="http://www.w3.org/2000/svg" width="0" height="0" style="position:absolute">
    <symbol id="codepen" viewBox="0 0 48 48">
        <title>CodePen</title>
        <path d="M15.2388 39.105H3.63861C3.45295 39.105 3.2759 39.0284 3.14861 38.8925C3.02228 38.7566 2.9572 38.5748 2.96965 38.3891L3.50941 30.507C3.52759 30.2457 3.69603 30.018 3.94103 29.9261C4.18603 29.8332 4.46261 29.8926 4.64924 30.0773C5.9307 31.3492 7.63134 32.0488 9.43822 32.0488C11.2441 32.0488 12.9448 31.3492 14.2272 30.0782C14.4904 29.8179 14.9144 29.8198 15.1747 30.0821C15.435 30.3453 15.4331 30.7692 15.1708 31.0295C13.6358 32.5512 11.6002 33.3886 9.43918 33.3886C7.73949 33.3886 6.11828 32.8709 4.75738 31.91L4.35638 37.7651H14.5181L14.2195 33.7245C14.1918 33.3551 14.4693 33.0345 14.8378 33.0068C15.2043 32.98 15.5278 33.2565 15.5556 33.625L15.9078 38.3843C15.9211 38.57 15.857 38.7528 15.7307 38.8896C15.6025 39.0274 15.4254 39.105 15.2388 39.105Z" />
        <path d="M9.43821 29.4308C7.13081 29.4308 5.25311 27.5531 5.25311 25.2457C5.25311 23.6446 6.14411 22.208 7.57965 21.496C8.15962 21.2079 8.78456 21.0615 9.43821 21.0615C11.7456 21.0615 13.6233 22.9392 13.6233 25.2466C13.6233 25.8993 13.4778 26.5252 13.1898 27.1052C12.4758 28.5398 11.0384 29.4308 9.43821 29.4308ZM9.43821 22.4014C8.99415 22.4014 8.56923 22.5009 8.17589 22.6961C7.19876 23.1804 6.59296 24.1575 6.59296 25.2457C6.59296 26.8142 7.86868 28.0909 9.43821 28.0909C10.5264 28.0909 11.5035 27.4851 11.9897 26.5089C12.1849 26.1156 12.2835 25.6907 12.2835 25.2457C12.2835 23.6771 11.0068 22.4014 9.43821 22.4014Z" />
        <path d="M9.43824 33.3888C7.27631 33.3888 5.23974 32.5504 3.70562 31.0288C2.15045 29.4889 1.29486 27.4351 1.29486 25.2454C1.29486 20.755 4.94785 17.1011 9.43824 17.1011C10.357 17.1011 11.2604 17.2532 12.1227 17.5547C14.4454 18.3644 16.3164 20.2363 17.1289 22.5609C17.4295 23.4232 17.5826 24.3267 17.5826 25.2454C17.5826 27.4351 16.726 29.4899 15.1699 31.0297C13.6358 32.5514 11.6002 33.3888 9.43824 33.3888ZM9.43824 18.4409C5.68668 18.4409 2.6347 21.4939 2.6347 25.2454C2.6347 27.0743 3.35056 28.7903 4.64926 30.0765C5.93072 31.3484 7.63137 32.049 9.43824 32.049C11.2442 32.049 12.9448 31.3494 14.2272 30.0784C15.5269 28.7912 16.2427 27.0753 16.2427 25.2454C16.2427 24.4769 16.1154 23.7218 15.8637 23.0021C15.1852 21.0603 13.6224 19.4965 11.6815 18.8199C10.9618 18.5682 10.2067 18.4409 9.43824 18.4409Z" />
        <path d="M9.43821 29.4308C7.13081 29.4308 5.25311 27.5531 5.25311 25.2457C5.25311 23.6446 6.14411 22.208 7.57965 21.496C8.15962 21.2079 8.78456 21.0615 9.43821 21.0615C11.7456 21.0615 13.6233 22.9392 13.6233 25.2466C13.6233 25.8993 13.4778 26.5252 13.1898 27.1052C12.4758 28.5398 11.0384 29.4308 9.43821 29.4308ZM9.43821 22.4014C8.99415 22.4014 8.56923 22.5009 8.17589 22.6961C7.19876 23.1804 6.59296 24.1575 6.59296 25.2457C6.59296 26.8142 7.86868 28.0909 9.43821 28.0909C10.5264 28.0909 11.5035 27.4851 11.9897 26.5089C12.1849 26.1156 12.2835 25.6907 12.2835 25.2457C12.2835 23.6771 11.0068 22.4014 9.43821 22.4014Z" />
        <path d="M16.4973 23.4509C16.4533 23.4509 16.4083 23.4461 16.3633 23.4375C16.1317 23.3906 15.9422 23.225 15.8647 23.0021C15.1862 21.0602 13.6233 19.4964 11.6825 18.8198C11.4595 18.7423 11.2939 18.5528 11.247 18.3212C11.2001 18.0896 11.2776 17.8504 11.4528 17.6915L18.6353 11.1588C18.909 10.91 19.333 10.9301 19.5818 11.2038C19.8306 11.4775 19.8105 11.9014 19.5368 12.1503L13.1247 17.9824C14.656 18.7643 15.9202 20.0286 16.7031 21.5608L24.0196 13.5169C22.3907 12.8451 21.1762 11.4095 20.8059 9.63041C20.7302 9.2677 20.9628 8.9136 21.3255 8.83799C21.6873 8.76238 22.0423 8.99494 22.1179 9.35766C22.45 10.9549 23.7506 12.2259 25.3537 12.5206C25.5929 12.5647 25.7891 12.735 25.8676 12.9657C25.9461 13.1963 25.8925 13.4509 25.7288 13.6308L16.995 23.2327C16.8638 23.3734 16.6839 23.4509 16.4973 23.4509Z" />
        <path d="M24.6292 10.8074C24.4732 10.8074 24.3163 10.7529 24.1899 10.6428L24.099 10.5644C23.9593 10.4428 23.876 10.2686 23.8693 10.0839C23.8626 9.89922 23.9325 9.7193 24.0627 9.58818C24.188 9.46186 24.3603 9.38816 24.5393 9.38721C24.5402 9.38721 24.5402 9.38721 24.5412 9.38721C24.7182 9.38721 24.8905 9.45516 25.0168 9.58053C25.0321 9.59584 25.0474 9.6102 25.0628 9.62455L25.0943 9.65518C25.3566 9.90688 25.369 10.3222 25.124 10.5902C24.991 10.7347 24.8111 10.8074 24.6292 10.8074Z" />
        <path d="M26.0944 13.9275C25.7613 13.9275 25.4293 13.8968 25.1087 13.8375C22.9438 13.4394 21.2537 11.7875 20.8049 9.63039C20.7302 9.26863 20.692 8.89731 20.692 8.52502C20.692 5.54674 23.1152 3.12354 26.0944 3.12354C26.4648 3.12354 26.7643 3.42309 26.7643 3.79346C26.7643 4.16383 26.4648 4.46338 26.0944 4.46338C23.854 4.46338 22.0318 6.28557 22.0318 8.52502C22.0318 8.80543 22.0605 9.08584 22.117 9.35764C22.4491 10.954 23.7497 12.2249 25.3527 12.5197C25.5939 12.5646 25.8437 12.5876 26.0944 12.5876C26.6064 12.5876 27.1041 12.4938 27.5749 12.3091C28.5626 11.9225 29.3761 11.1454 29.8067 10.1749C30.0393 9.65336 30.157 9.09828 30.157 8.52406C30.157 7.59096 29.8326 6.67986 29.244 5.95826C29.0105 5.67211 29.0526 5.25006 29.3397 5.01559C29.6258 4.78207 30.0479 4.82418 30.2824 5.11129C31.0662 6.07119 31.4978 7.28375 31.4978 8.52406C31.4978 9.28777 31.3408 10.0256 31.0317 10.7195C30.4594 12.0086 29.378 13.0422 28.0649 13.5561C27.4371 13.803 26.7739 13.9275 26.0944 13.9275Z" />
        <path d="M28.1951 4.9541C27.8248 4.9541 27.5252 4.65455 27.5252 4.28418C27.5252 3.91381 27.8248 3.61426 28.1951 3.61426H28.1961C28.5665 3.61426 28.866 3.91381 28.866 4.28418C28.866 4.65455 28.5655 4.9541 28.1951 4.9541Z" />
        <path d="M26.0944 11.3731C25.3881 11.3731 24.7096 11.1128 24.1851 10.639L24.099 10.5644C24.0598 10.5309 24.0253 10.4926 23.9956 10.4514C23.5114 9.92412 23.2463 9.24367 23.2463 8.5259C23.2463 7.76602 23.542 7.05111 24.0799 6.51326C24.0885 6.50465 24.0971 6.49604 24.1066 6.48838C24.6426 5.9668 25.347 5.67969 26.0944 5.67969C27.3548 5.67969 28.4497 6.48934 28.8181 7.69424C28.9004 7.96221 28.9425 8.24262 28.9425 8.52686C28.9425 9.28674 28.6468 10.0016 28.109 10.5405C27.5682 11.0773 26.8533 11.3731 26.0944 11.3731ZM25.0465 9.61309L25.0694 9.63318C25.0733 9.63606 25.0761 9.63893 25.079 9.6418C25.3575 9.89445 25.7183 10.0332 26.0934 10.0332C26.4954 10.0332 26.8744 9.87627 27.1605 9.59108C27.4438 9.30684 27.6008 8.92785 27.6008 8.52494C27.6008 8.37373 27.5788 8.22635 27.5357 8.08471C27.3405 7.44637 26.7605 7.01762 26.0934 7.01762C25.6915 7.01762 25.3135 7.17457 25.0273 7.45977C25.0216 7.46551 25.0149 7.47125 25.0091 7.47699C24.7354 7.75932 24.5861 8.13065 24.5861 8.52398C24.5861 8.92211 24.7402 9.29918 25.0206 9.58342C25.0292 9.59395 25.0378 9.60352 25.0465 9.61309Z" />
        <path d="M26.0944 11.373C25.3852 11.373 24.7058 11.1108 24.1794 10.6342C24.1746 10.6294 24.1698 10.6256 24.165 10.6208L24.1392 10.5959C24.1162 10.5739 24.0933 10.5519 24.0703 10.5289C23.5372 9.98727 23.2463 9.27715 23.2463 8.52492C23.2463 7.76504 23.542 7.05014 24.0799 6.51229C24.0885 6.50367 24.0971 6.49506 24.1066 6.4874C24.6426 5.96582 25.347 5.67871 26.0944 5.67871C27.3548 5.67871 28.4497 6.48836 28.8181 7.69326C28.9004 7.96123 28.9425 8.24164 28.9425 8.52588C28.9425 9.28576 28.6468 10.0007 28.109 10.5395C27.5682 11.0773 26.8533 11.373 26.0944 11.373ZM25.0847 9.64656C25.3623 9.89539 25.7202 10.0332 26.0934 10.0332C26.4954 10.0332 26.8744 9.87625 27.1605 9.59105C27.4438 9.30682 27.6008 8.92783 27.6008 8.52492C27.6008 8.37371 27.5788 8.22633 27.5357 8.08469C27.3405 7.44635 26.7605 7.0176 26.0934 7.0176C25.6915 7.0176 25.3135 7.17455 25.0273 7.45975C25.0216 7.46549 25.0149 7.47123 25.0091 7.47697C24.7354 7.7593 24.5861 8.13062 24.5861 8.52396C24.5861 8.92209 24.7402 9.29916 25.0206 9.5834C25.0321 9.59393 25.0465 9.60828 25.0618 9.62359L25.0847 9.64656Z" />
        <path d="M34.79 19.7109C34.6293 19.7109 34.4723 19.6535 34.3488 19.5453L27.3778 13.4375C27.2017 13.2835 27.1194 13.049 27.1596 12.8183C27.1998 12.5877 27.3577 12.3953 27.5759 12.3102C28.5636 11.9235 29.3761 11.1464 29.8068 10.1769C29.8996 9.9683 30.092 9.82092 30.3188 9.78646C30.5446 9.75201 30.7724 9.83527 30.9236 10.0075L36.9568 16.8934C37.1013 17.0589 37.1558 17.2848 37.1022 17.4982C37.0486 17.7116 36.8936 17.8849 36.6878 17.9624C36.0935 18.1854 35.6322 18.6591 35.4236 19.262C35.3509 19.4726 35.1776 19.6334 34.9623 19.6908C34.9049 19.7032 34.8475 19.7109 34.79 19.7109ZM29.0009 13.0777L34.5881 17.9729C34.8092 17.6533 35.0829 17.3748 35.3977 17.146L30.536 11.5981C30.1274 12.1857 29.6039 12.6911 29.0009 13.0777Z" />
        <path d="M32.8252 28.8144H30.0575C29.6871 28.8144 29.3876 28.5149 29.3876 28.1445V22.4272C29.3876 22.1812 29.5225 21.9544 29.7388 21.8376L34.3182 19.3628C34.5259 19.2508 34.7776 19.2556 34.9795 19.3771C35.1824 19.4977 35.3068 19.7169 35.3068 19.9523C35.3068 20.7141 35.6944 21.3984 36.3442 21.7879C36.551 21.9113 36.6744 22.1372 36.6696 22.3774C36.6639 22.6176 36.5299 22.8377 36.3184 22.9516L33.4951 24.4771V28.1435C33.4951 28.5139 33.1956 28.8144 32.8252 28.8144ZM30.7274 27.4746H32.1553V24.0781C32.1553 23.8321 32.2902 23.6053 32.5065 23.4885L34.8226 22.2367C34.5077 21.874 34.2703 21.4481 34.1258 20.9897L30.7274 22.8263V27.4746Z" />
        <path d="M44.8245 28.8145H42.0567C41.6864 28.8145 41.3868 28.515 41.3868 28.1446V24.4782L38.5655 22.9537C38.354 22.8398 38.22 22.6206 38.2142 22.3795C38.2085 22.1393 38.3329 21.9143 38.5387 21.7899C39.1875 21.3995 39.5751 20.7142 39.5751 19.9582C39.5751 19.7218 39.6996 19.5007 39.9024 19.3801C40.1053 19.2595 40.3561 19.2509 40.5638 19.3639L45.1432 21.8387C45.3594 21.9555 45.4944 22.1823 45.4944 22.4283V28.1456C45.4944 28.514 45.1948 28.8145 44.8245 28.8145ZM42.7276 27.4747H44.1555V22.8274L40.7571 20.9908C40.6135 21.4502 40.3752 21.8751 40.0613 22.2388L42.3764 23.4896C42.5927 23.6064 42.7276 23.8332 42.7276 24.0792V27.4747Z" />
        <path d="M37.442 23.431C36.8113 23.431 36.193 23.2596 35.6542 22.9362C34.6139 22.3122 33.967 21.1704 33.967 19.9579C33.9679 19.5674 34.0321 19.1884 34.1565 18.8248C34.4972 17.8419 35.2475 17.0705 36.217 16.7069C36.6055 16.5585 37.019 16.4829 37.442 16.4829C39.3532 16.4829 40.9112 18.039 40.916 19.9512V19.9521V19.9579C40.916 21.1704 40.27 22.3122 39.2297 22.9371C38.689 23.2606 38.0717 23.431 37.442 23.431ZM37.442 17.8228C37.1826 17.8228 36.929 17.8687 36.6907 17.9596C36.0935 18.1836 35.6322 18.6573 35.4236 19.2602C35.348 19.4832 35.3078 19.7177 35.3068 19.9541C35.3068 20.7139 35.6944 21.3973 36.3442 21.7868C36.6754 21.9858 37.0544 22.0902 37.442 22.0902C37.8296 22.0902 38.2085 21.9858 38.5406 21.7868C39.1885 21.3973 39.5761 20.712 39.5761 19.956L40.2461 19.9502L39.5761 19.9512C39.5733 18.7788 38.6162 17.8228 37.442 17.8228Z" />
        <path d="M42.0577 35.2549H32.8262C32.4558 35.2549 32.1562 34.9554 32.1562 34.585V26.2617C32.1562 25.8913 32.4558 25.5918 32.8262 25.5918H42.0577C42.4281 25.5918 42.7276 25.8913 42.7276 26.2617V34.585C42.7276 34.9554 42.4271 35.2549 42.0577 35.2549ZM33.4951 33.9151H41.3868V26.9316H33.4951V33.9151Z" />
        <path d="M27.8477 39.4629C27.8037 39.4629 27.7597 39.4581 27.7166 39.4495C27.6745 39.4409 27.6324 39.4275 27.5912 39.4112C27.551 39.394 27.5128 39.3739 27.4764 39.3499C27.4391 39.3251 27.4056 39.2973 27.374 39.2667C27.2496 39.1413 27.1778 38.969 27.1778 38.7929C27.1778 38.7489 27.1826 38.7049 27.1912 38.6618C27.1998 38.6188 27.2122 38.5767 27.2295 38.5365C27.2457 38.4963 27.2668 38.457 27.2907 38.4207C27.3156 38.3843 27.3434 38.3498 27.374 38.3192C27.4056 38.2876 27.4391 38.2599 27.4764 38.2359C27.5128 38.2111 27.551 38.191 27.5912 38.1737C27.6324 38.1575 27.6745 38.1441 27.7166 38.1355C27.9348 38.0924 28.1664 38.1632 28.3214 38.3192C28.353 38.3498 28.3808 38.3843 28.4047 38.4207C28.4296 38.457 28.4497 38.4963 28.4669 38.5365C28.4832 38.5767 28.4966 38.6188 28.5052 38.6618C28.5138 38.7049 28.5176 38.7489 28.5176 38.7929C28.5176 38.969 28.4468 39.1413 28.3214 39.2667C28.197 39.3911 28.0238 39.4629 27.8477 39.4629Z" />
        <path d="M47.0352 45.876H27.8477C27.4773 45.876 27.1778 45.5765 27.1778 45.2061V40.7865C27.1778 40.4162 27.4773 40.1166 27.8477 40.1166C28.2181 40.1166 28.5176 40.4162 28.5176 40.7865V44.5362H46.3644V35.2559H28.5176V36.7995C28.5176 37.1699 28.2181 37.4695 27.8477 37.4695C27.4773 37.4695 27.1778 37.1699 27.1778 36.7995V34.5859C27.1778 34.2156 27.4773 33.916 27.8477 33.916H47.0343C47.4046 33.916 47.7042 34.2156 47.7042 34.5859V45.2061C47.7052 45.5755 47.4047 45.876 47.0352 45.876Z" />
        <path d="M16.9127 45.876H1.96478C1.59441 45.876 1.29486 45.5764 1.29486 45.2061V38.4351C1.29486 38.0647 1.59441 37.7651 1.96478 37.7651H16.9127C17.283 37.7651 17.5826 38.0647 17.5826 38.4351V45.2061C17.5826 45.5755 17.283 45.876 16.9127 45.876ZM2.6347 44.5361H16.2427V39.105H2.6347V44.5361Z" />
    </symbol>
    <symbol id="arrow-long" viewBox="0 0 10 8">
        <path d="M9.35355 4.35355C9.54882 4.15829 9.54882 3.84171 9.35355 3.64645L6.17157 0.464466C5.97631 0.269204 5.65973 0.269204 5.46447 0.464466C5.2692 0.659728 5.2692 0.976311 5.46447 1.17157L8.29289 4L5.46447 6.82843C5.2692 7.02369 5.2692 7.34027 5.46447 7.53553C5.65973 7.7308 5.97631 7.7308 6.17157 7.53553L9.35355 4.35355ZM0 4.5H9V3.5H0V4.5Z" />
    </symbol>
    <symbol id="arrow-right" viewBox="0 0 8 10">
        <path d="M0.916672 8.75L4.75 5L0.916672 1.16667L2.08334 0L7.08334 5L2.08334 10L0.916672 8.75Z" />
    </symbol>
    <symbol id="arrow-left" viewBox="0 0 8 10">
        <path d="M7.08333 8.75L3.25 5L7.08333 1.16667L5.91666 0L0.916662 5L5.91666 10L7.08333 8.75Z" />
    </symbol>
    <symbol id="phone" viewBox="0 0 15 15">
      <path d="M11.7486 11.7682L11.7352 11.5858C11.7022 11.1591 11.372 10.6394 11.0009 10.4308L9.62798 9.65565C9.25555 9.44589 8.64818 9.44816 8.28173 9.66685L7.6133 10.0658C5.80606 9.05202 4.66914 7.14707 4.63533 5.07575L5.3038 4.67678C5.67025 4.45807 5.96035 3.92531 5.95251 3.49795L5.92289 1.92108C5.91487 1.49445 5.61344 0.957001 5.25395 0.727039L5.09991 0.627943C4.73966 0.397791 4.14536 0.388524 3.77894 0.60722L2.77887 1.20472C2.60043 1.31059 2.40683 1.69335 2.40646 1.69483C1.73862 4.2224 2.11594 6.91531 3.45618 9.16088C4.79313 11.4009 6.97541 13.0075 9.50806 13.6243C9.52128 13.6276 9.96146 13.6433 10.1399 13.5375L11.1398 12.9407C11.5062 12.722 11.7801 12.1946 11.7486 11.7682Z"/>
    </symbol>
    <symbol id="arrow-down-sm" viewBox="0 0 6 3">
      <path d="M2.99976 3L5.59783 0H0.40168L2.99976 3Z" />
    </symbol>
    <symbol id="sign" viewBox="0 0 12 14">
      <path d="M6 0.222656C3.68751 0.222656 1.8 2.12923 1.8 4.46508C1.8 5.92499 2.5387 7.22394 3.65625 7.98781C1.51597 8.91498 0 11.0598 0 13.556H1.2C1.2 10.8707 3.3416 8.70751 6 8.70751C8.6584 8.70751 10.8 10.8707 10.8 13.556H12C12 11.0598 10.484 8.91498 8.34375 7.98781C9.4613 7.22394 10.2 5.92499 10.2 4.46508C10.2 2.12923 8.31249 0.222656 6 0.222656ZM6 1.43478C7.66396 1.43478 9 2.78431 9 4.46508C9 6.14585 7.66396 7.49538 6 7.49538C4.33604 7.49538 3 6.14585 3 4.46508C3 2.78431 4.33604 1.43478 6 1.43478Z"/>
    </symbol>
    <symbol id="logo" viewBox="0 0 155 54">
      <path d="M10.2898 0.135988C7.19178 0.780671 4.1952 2.97737 2.51783 5.82472C1.95075 6.79174 1.49708 8.03335 1.26428 9.26303C1.18668 9.68088 1.15683 10.1286 1.15683 11.1254C1.15683 12.582 1.24637 13.2266 1.6105 14.331C2.18952 16.1038 3.53261 17.9842 5.00105 19.0706L5.4786 19.4168L5.51441 19.763C5.54426 20.0257 5.58604 20.1212 5.69349 20.1928C5.76512 20.2405 5.91435 20.3599 6.0218 20.4554C6.12925 20.5569 6.42771 20.7778 6.68439 20.9509C7.07239 21.2135 7.15 21.2971 7.12015 21.3926C7.05449 21.6254 7.02464 23.1834 7.08433 23.4043L7.14403 23.6251L6.81572 23.6669C6.61276 23.6908 6.43368 23.7565 6.33817 23.8341C6.20685 23.9475 6.18894 24.0131 6.18894 24.3534C6.18894 24.9503 6.43965 27.2485 6.55307 27.6544L6.65454 28.0185L7.07836 28.0126C7.4604 28.0126 7.50218 28.0245 7.43652 28.1021C7.07836 28.5737 5.53829 30.1854 4.30265 31.3852C2.32681 33.3013 1.74779 33.9759 0.995661 35.2115C0.553934 35.9278 0.201746 36.8292 0.0763906 37.5455C-0.060903 38.3335 -0.00717935 39.7601 0.189807 40.7092C0.339039 41.4076 0.446486 41.724 0.559903 41.7598C0.709135 41.8016 0.780766 41.6345 0.888214 40.9659C1.05535 39.9452 1.2404 39.4437 1.73585 38.7155C1.99253 38.3394 2.63721 37.6231 2.80435 37.5395C2.89986 37.4858 2.89986 37.5037 2.79242 37.8559C2.33875 39.3661 2.39247 40.6376 2.97149 41.8613C3.23414 42.4165 3.46695 42.6731 3.62215 42.5776C3.67587 42.5418 3.78929 42.2732 3.87286 41.9807C4.02806 41.4435 4.20117 41.0614 4.27877 41.0614C4.30265 41.0614 4.43397 41.4196 4.57723 41.8553C5.13238 43.5864 6.00389 45.0012 6.97092 45.7413C7.72902 46.3263 8.30804 46.5174 10.2719 46.8516C12.4686 47.2217 13.3581 47.5202 13.955 48.0753C14.3251 48.4216 14.5221 48.7499 14.7728 49.4423C14.9817 50.0452 15.0832 50.1586 15.2623 49.9974C15.4413 49.8363 15.698 49.2095 15.7816 48.7379L15.8532 48.3141L15.9308 48.5827C16.1815 49.4901 16.5994 50.0094 17.6559 50.7257C18.6468 51.3943 19.4646 52.1583 19.8347 52.7493C19.9183 52.8866 20.0198 53 20.0496 53C20.0795 53 20.1511 52.9105 20.2048 52.803C20.3958 52.4329 21.5897 51.3226 22.3776 50.7914C22.7895 50.5168 23.2611 50.1526 23.4282 49.9855C23.7566 49.6632 24.061 49.1021 24.1863 48.5887L24.2699 48.2664L24.3415 48.726C24.443 49.3289 24.7892 50.0452 24.9922 50.0452C25.1116 50.0452 25.1593 49.9676 25.3623 49.4363C25.7443 48.4216 26.0726 48.0216 26.8248 47.6396C27.5232 47.2934 28.2992 47.0964 30.3526 46.7621C31.4151 46.589 32.1076 46.386 32.6448 46.0935C33.1343 45.8189 34.0237 44.9474 34.4058 44.3565C34.8236 43.6998 35.3012 42.6731 35.5877 41.7837L35.8444 40.9958L36.0055 41.2883C36.0951 41.4494 36.2085 41.7658 36.2562 41.9867C36.3756 42.4941 36.4353 42.6134 36.5846 42.6134C36.889 42.6134 37.4322 41.4554 37.6053 40.4346C37.7247 39.7243 37.6053 38.7215 37.2651 37.5754C37.2412 37.4918 37.3606 37.5754 37.5993 37.8082C38.5962 38.7752 39.0737 39.7183 39.2707 41.1331C39.3424 41.6643 39.42 41.8076 39.5931 41.7419C39.7184 41.6942 39.8438 41.2644 40.0169 40.2436C40.393 38.1007 40.0646 36.5904 38.835 34.734C38.2739 33.8863 37.6351 33.17 36.1548 31.7314C34.8952 30.5018 33.7372 29.3019 32.8 28.2454L32.5792 27.9947L33.0269 28.0305L33.4746 28.0663L33.5104 27.8932C33.5342 27.7977 33.576 27.6365 33.6059 27.541C33.6775 27.3261 33.9581 24.6996 33.9581 24.2579C33.9581 23.8639 33.8446 23.7505 33.379 23.6789C33.188 23.649 33.0269 23.6192 33.0209 23.6072C33.0089 23.6013 33.0328 23.4341 33.0686 23.2371C33.1343 22.9029 33.1164 22.1567 33.0269 21.5419L32.991 21.2673L33.3671 21.0106C33.576 20.8673 33.8148 20.6882 33.8984 20.6106C33.9819 20.539 34.1789 20.3898 34.3401 20.2764C34.6326 20.0853 34.6386 20.0734 34.6505 19.7511C34.6624 19.5123 34.6983 19.3989 34.7818 19.3332C36.0294 18.3602 36.5368 17.8528 37.2233 16.9037C37.659 16.3008 38.2918 15.0473 38.5186 14.3489C39.408 11.597 39.0976 8.44523 37.6829 5.9441C36.0413 3.04303 32.9254 0.762763 29.7258 0.112111C29.3856 0.0404793 28.9797 -0.00727504 28.8304 0.00466354C28.3828 0.03451 28.4245 0.171804 29.105 0.947811C30.8063 2.88783 31.451 4.3503 31.451 6.26644C31.451 7.94381 30.9137 9.30481 29.6363 10.8449L29.2781 11.2866L28.9737 11.2508C28.7349 11.221 28.6275 11.2389 28.4365 11.3403C28.1917 11.4717 27.6784 11.8895 27.2008 12.3432L26.9203 12.6058L26.4547 12.3969C25.7384 12.0686 24.3236 11.6448 23.6312 11.5433L23.3566 11.5015L23.2909 11.1374C23.2133 10.7434 23.0761 10.5106 22.8492 10.3972C22.6582 10.2957 17.5962 10.2897 17.3157 10.3853C17.0829 10.4629 16.9217 10.7255 16.8262 11.1672L16.7486 11.5015L16.474 11.5433C15.7995 11.6448 14.3549 12.0865 13.6267 12.4088L13.2267 12.5879L12.9044 12.3074C12.7253 12.1462 12.397 11.8835 12.1821 11.7104C11.7881 11.406 11.7762 11.4 11.3643 11.3941L10.9465 11.3881L10.5883 10.9702C9.11986 9.26303 8.49905 7.52 8.69604 5.63967C8.86915 3.98618 9.55562 2.58936 10.9703 1.0075C11.5792 0.327005 11.6687 0.195681 11.5732 0.0822643C11.4718 -0.0430908 11.0838 -0.0251829 10.2898 0.135988ZM22.0493 25.1831C23.285 25.2547 24.7176 25.3682 24.6878 25.398C24.6758 25.41 24.0789 25.5413 23.3626 25.6965C21.9777 25.983 21.8404 26.0308 21.8404 26.174C21.8404 26.2277 21.7986 26.7232 21.7449 27.2783C21.6494 28.323 21.6613 28.5856 21.8106 28.5856C21.8583 28.5856 22.2642 28.4662 22.706 28.317C24.2341 27.8036 25.5832 27.535 27.171 27.4276L27.6306 27.3918V28.514C27.6306 30.2928 27.4754 31.7195 27.2128 32.4298C26.8069 33.5043 25.4638 34.8593 24.0371 35.6234C23.094 36.1368 22.2821 36.3576 20.8614 36.483C20.0496 36.5546 19.7512 36.5486 18.5513 36.4054C16.9993 36.2263 15.5667 35.5219 14.3191 34.334C13.1193 33.1939 12.7671 32.4656 12.594 30.7584C12.5104 29.9347 12.4507 27.5589 12.5104 27.4694C12.5462 27.4216 12.7552 27.4156 13.3043 27.4574C14.6952 27.5589 15.7279 27.7678 17.262 28.2692C17.8171 28.4483 18.3066 28.5796 18.3543 28.5617C18.414 28.5379 18.4379 28.4244 18.4379 28.1558C18.4319 27.6305 18.2947 26.18 18.2409 26.0964C18.1812 26.0009 17.9544 25.9412 16.5934 25.6607C15.9547 25.5293 15.4234 25.41 15.4115 25.398C15.3816 25.3682 16.8262 25.2547 18.1096 25.1831C18.7364 25.1473 19.3632 25.1115 19.5124 25.0995C19.8228 25.0757 20.5451 25.0995 22.0493 25.1831Z" />
      <path d="M65.8001 24.3049C65.5921 23.6649 65.4081 23.0409 65.2481 22.4329L64.4801 19.7929C64.2241 18.9289 64.0241 18.2809 63.8801 17.8489C63.7521 17.3689 63.6481 17.0089 63.5681 16.7689L61.1201 8.48888H66.0161L70.5041 25.0009H66.0161L65.8001 24.3049ZM69.5681 17.6809L71.9921 8.48888H76.7921L74.3441 16.7689L73.4561 19.7929C73.1681 20.7209 72.9041 21.6009 72.6641 22.4329C72.5041 23.0409 72.3201 23.6649 72.1121 24.3049L71.8961 25.0009H71.5601L69.5681 17.6809ZM80.7542 8.48888H85.5542V25.0009H80.7542V8.48888ZM90.956 8.48888H95.756V25.0009H90.956V8.48888ZM96.764 19.2169V14.0569L100.556 8.48888H105.788L100.1 16.2649L105.86 25.0009H100.484L96.764 19.2169ZM109.619 8.48888H114.419V25.0009H109.619V8.48888ZM119.821 9.16088V8.48888H124.621L133.885 24.3049V25.0009H129.109L119.821 9.16088ZM129.325 14.5129V8.48888H133.885V22.3129L129.325 14.5129ZM119.821 11.1529L124.381 18.9529V25.0009H119.821V11.1529ZM144.752 8.34488C145.392 8.31288 145.92 8.29688 146.336 8.29688C147.776 8.29688 149.096 8.39288 150.296 8.58488C150.904 8.64888 151.488 8.74488 152.048 8.87288V12.3049C151.376 12.2409 150.872 12.1849 150.536 12.1369C150.264 12.1209 149.824 12.0809 149.216 12.0169C148.608 11.9849 148.208 11.9689 148.016 11.9689C147.04 11.9689 146.32 11.9929 145.856 12.0409C145.408 12.0729 145.04 12.1689 144.752 12.3289V8.34488ZM146.336 25.1929C144.736 25.1929 143.456 25.0729 142.496 24.8329C141.552 24.5929 140.816 24.1689 140.288 23.5609C139.76 22.9529 139.384 22.1129 139.16 21.0409C138.952 19.9689 138.848 18.5369 138.848 16.7449C138.848 15.2249 138.92 13.9769 139.064 13.0009C139.208 12.0249 139.456 11.2249 139.808 10.6009C140.176 9.96088 140.672 9.47288 141.296 9.13688C141.92 8.80088 142.736 8.56888 143.744 8.44088V16.7449C143.744 17.8809 143.776 18.7529 143.84 19.3609C143.904 19.9529 144.024 20.4089 144.2 20.7289C144.392 21.0649 144.664 21.2969 145.016 21.4249C145.384 21.5529 145.904 21.6169 146.576 21.6169V25.1929H146.336ZM147.584 18.6649H145.88V15.1849H152.12V24.5929C151.368 24.7689 150.432 24.9049 149.312 25.0009C148.768 25.0809 148.192 25.1289 147.584 25.1449V18.6649Z" />
      <path d="M66.8948 36H65.5358V30.708H63.9608C63.9248 30.984 63.8858 31.284 63.8438 31.608C63.8078 31.932 63.7658 32.262 63.7178 32.598C63.6758 32.928 63.6308 33.243 63.5828 33.543C63.5348 33.837 63.4868 34.098 63.4388 34.326C63.3608 34.698 63.2558 35.016 63.1238 35.28C62.9978 35.544 62.8208 35.745 62.5928 35.883C62.3708 36.021 62.0798 36.09 61.7198 36.09C61.4858 36.09 61.2698 36.057 61.0718 35.991V34.875C61.1498 34.899 61.2248 34.92 61.2968 34.938C61.3748 34.956 61.4588 34.965 61.5488 34.965C61.7228 34.965 61.8548 34.875 61.9448 34.695C62.0408 34.509 62.1368 34.164 62.2328 33.66C62.2688 33.468 62.3198 33.168 62.3858 32.76C62.4518 32.352 62.5238 31.875 62.6018 31.329C62.6858 30.777 62.7638 30.192 62.8358 29.574H66.8948V36ZM75.2029 32.778C75.2029 33.444 75.0919 34.026 74.8699 34.524C74.6539 35.016 74.3209 35.4 73.8709 35.676C73.4209 35.952 72.8449 36.09 72.1429 36.09C71.4469 36.09 70.8709 35.952 70.4149 35.676C69.9649 35.4 69.6289 35.013 69.4069 34.515C69.1909 34.017 69.0829 33.435 69.0829 32.769C69.0829 32.103 69.1909 31.524 69.4069 31.032C69.6289 30.54 69.9649 30.159 70.4149 29.889C70.8709 29.613 71.4499 29.475 72.1519 29.475C72.8479 29.475 73.4209 29.613 73.8709 29.889C74.3209 30.159 74.6539 30.543 74.8699 31.041C75.0919 31.533 75.2029 32.112 75.2029 32.778ZM70.5139 32.778C70.5139 33.45 70.6429 33.981 70.9009 34.371C71.1589 34.755 71.5729 34.947 72.1429 34.947C72.7249 34.947 73.1419 34.755 73.3939 34.371C73.6459 33.981 73.7719 33.45 73.7719 32.778C73.7719 32.1 73.6459 31.569 73.3939 31.185C73.1419 30.801 72.7279 30.609 72.1519 30.609C71.5759 30.609 71.1589 30.801 70.9009 31.185C70.6429 31.569 70.5139 32.1 70.5139 32.778ZM81.4479 29.574V30.699H78.7479V36H77.3889V29.574H81.4479ZM88.9451 32.778C88.9451 33.444 88.8341 34.026 88.6121 34.524C88.3961 35.016 88.0631 35.4 87.6131 35.676C87.1631 35.952 86.5871 36.09 85.8851 36.09C85.1891 36.09 84.6131 35.952 84.1571 35.676C83.7071 35.4 83.3711 35.013 83.1491 34.515C82.9331 34.017 82.8251 33.435 82.8251 32.769C82.8251 32.103 82.9331 31.524 83.1491 31.032C83.3711 30.54 83.7071 30.159 84.1571 29.889C84.6131 29.613 85.1921 29.475 85.8941 29.475C86.5901 29.475 87.1631 29.613 87.6131 29.889C88.0631 30.159 88.3961 30.543 88.6121 31.041C88.8341 31.533 88.9451 32.112 88.9451 32.778ZM84.2561 32.778C84.2561 33.45 84.3851 33.981 84.6431 34.371C84.9011 34.755 85.3151 34.947 85.8851 34.947C86.4671 34.947 86.8841 34.755 87.1361 34.371C87.3881 33.981 87.5141 33.45 87.5141 32.778C87.5141 32.1 87.3881 31.569 87.1361 31.185C86.8841 30.801 86.4701 30.609 85.8941 30.609C85.3181 30.609 84.9011 30.801 84.6431 31.185C84.3851 31.569 84.2561 32.1 84.2561 32.778ZM93.3337 36H91.9747V30.708H90.2287V29.574H95.0797V30.708H93.3337V36ZM96.9256 29.574H98.1496V32.679C98.1496 32.829 98.1466 32.997 98.1406 33.183C98.1346 33.369 98.1286 33.552 98.1226 33.732C98.1166 33.906 98.1106 34.059 98.1046 34.191C98.0986 34.317 98.0926 34.404 98.0866 34.452H98.1136L101.084 29.574H102.713V36H101.498V32.913C101.498 32.751 101.501 32.574 101.507 32.382C101.513 32.184 101.519 31.995 101.525 31.815C101.537 31.635 101.546 31.479 101.552 31.347C101.564 31.209 101.573 31.119 101.579 31.077H101.543L98.5636 36H96.9256V29.574ZM105.19 36V29.574H110.275V36H108.916V30.708H106.549V36H105.19ZM115.812 29.574H117.81C118.668 29.574 119.316 29.694 119.754 29.934C120.192 30.174 120.411 30.597 120.411 31.203C120.411 31.569 120.324 31.878 120.15 32.13C119.982 32.382 119.739 32.535 119.421 32.589V32.634C119.637 32.676 119.832 32.751 120.006 32.859C120.18 32.967 120.318 33.123 120.42 33.327C120.522 33.531 120.573 33.801 120.573 34.137C120.573 34.719 120.363 35.175 119.943 35.505C119.523 35.835 118.947 36 118.215 36H115.812V29.574ZM117.171 32.121H117.963C118.359 32.121 118.632 32.058 118.782 31.932C118.938 31.806 119.016 31.623 119.016 31.383C119.016 31.137 118.926 30.96 118.746 30.852C118.566 30.744 118.281 30.69 117.891 30.69H117.171V32.121ZM117.171 33.201V34.875H118.062C118.47 34.875 118.755 34.797 118.917 34.641C119.079 34.479 119.16 34.266 119.16 34.002C119.16 33.762 119.076 33.57 118.908 33.426C118.746 33.276 118.449 33.201 118.017 33.201H117.171ZM126.647 36L126.179 34.47H123.839L123.371 36H121.904L124.172 29.547H125.837L128.114 36H126.647ZM125.855 33.327L125.387 31.833C125.357 31.731 125.318 31.602 125.27 31.446C125.222 31.29 125.174 31.131 125.126 30.969C125.078 30.807 125.039 30.666 125.009 30.546C124.979 30.666 124.937 30.816 124.883 30.996C124.835 31.17 124.787 31.338 124.739 31.5C124.697 31.656 124.664 31.767 124.64 31.833L124.181 33.327H125.855ZM137.865 36H129.783V29.574H131.142V34.866H133.14V29.574H134.508V34.866H136.506V29.574H137.865V36ZM144.04 36H140.341V29.574H144.04V30.69H141.7V32.103H143.878V33.219H141.7V34.875H144.04V36ZM146.232 29.574H147.456V32.679C147.456 32.829 147.453 32.997 147.447 33.183C147.441 33.369 147.435 33.552 147.429 33.732C147.423 33.906 147.417 34.059 147.411 34.191C147.405 34.317 147.399 34.404 147.393 34.452H147.42L150.39 29.574H152.019V36H150.804V32.913C150.804 32.751 150.807 32.574 150.813 32.382C150.819 32.184 150.825 31.995 150.831 31.815C150.843 31.635 150.852 31.479 150.858 31.347C150.87 31.209 150.879 31.119 150.885 31.077H150.849L147.87 36H146.232V29.574ZM151.407 27.459C151.377 27.771 151.29 28.047 151.146 28.287C151.002 28.521 150.777 28.704 150.471 28.836C150.165 28.968 149.754 29.034 149.238 29.034C148.71 29.034 148.296 28.971 147.996 28.845C147.702 28.713 147.492 28.53 147.366 28.296C147.24 28.062 147.165 27.783 147.141 27.459H148.338C148.368 27.789 148.452 28.008 148.59 28.116C148.728 28.224 148.953 28.278 149.265 28.278C149.523 28.278 149.733 28.221 149.895 28.107C150.063 27.987 150.162 27.771 150.192 27.459H151.407Z" />
      <path d="M67.642 42.7776C67.642 43.4436 67.531 44.0256 67.309 44.5236C67.093 45.0156 66.76 45.3996 66.31 45.6756C65.86 45.9516 65.284 46.0896 64.582 46.0896C63.886 46.0896 63.31 45.9516 62.854 45.6756C62.404 45.3996 62.068 45.0126 61.846 44.5146C61.63 44.0166 61.522 43.4346 61.522 42.7686C61.522 42.1026 61.63 41.5236 61.846 41.0316C62.068 40.5396 62.404 40.1586 62.854 39.8886C63.31 39.6126 63.889 39.4746 64.591 39.4746C65.287 39.4746 65.86 39.6126 66.31 39.8886C66.76 40.1586 67.093 40.5426 67.309 41.0406C67.531 41.5326 67.642 42.1116 67.642 42.7776ZM62.953 42.7776C62.953 43.4496 63.082 43.9806 63.34 44.3706C63.598 44.7546 64.012 44.9466 64.582 44.9466C65.164 44.9466 65.581 44.7546 65.833 44.3706C66.085 43.9806 66.211 43.4496 66.211 42.7776C66.211 42.0996 66.085 41.5686 65.833 41.1846C65.581 40.8006 65.167 40.6086 64.591 40.6086C64.015 40.6086 63.598 40.8006 63.34 41.1846C63.082 41.5686 62.953 42.0996 62.953 42.7776ZM73.0501 39.5736C73.8781 39.5736 74.4811 39.7536 74.8591 40.1136C75.2431 40.4676 75.4351 40.9566 75.4351 41.5806C75.4351 41.9526 75.3571 42.3036 75.2011 42.6336C75.0451 42.9576 74.7841 43.2186 74.4181 43.4166C74.0581 43.6146 73.5661 43.7136 72.9421 43.7136H72.3571V45.9996H70.9981V39.5736H73.0501ZM72.9781 40.6896H72.3571V42.5976H72.8071C73.1911 42.5976 73.4941 42.5226 73.7161 42.3726C73.9441 42.2166 74.0581 41.9676 74.0581 41.6256C74.0581 41.0016 73.6981 40.6896 72.9781 40.6896ZM82.7335 39.5736V40.6986H80.0335V45.9996H78.6745V39.5736H82.7335ZM89.0446 45.9996L88.5766 44.4696H86.2366L85.7686 45.9996H84.3016L86.5696 39.5466H88.2346L90.5116 45.9996H89.0446ZM88.2526 43.3266L87.7846 41.8326C87.7546 41.7306 87.7156 41.6016 87.6676 41.4456C87.6196 41.2896 87.5716 41.1306 87.5236 40.9686C87.4756 40.8066 87.4366 40.6656 87.4066 40.5456C87.3766 40.6656 87.3346 40.8156 87.2806 40.9956C87.2326 41.1696 87.1846 41.3376 87.1366 41.4996C87.0946 41.6556 87.0616 41.7666 87.0376 41.8326L86.5786 43.3266H88.2526ZM98.6154 45.9996H97.2564V43.2276H94.7094V45.9996H93.3504V39.5736H94.7094V42.0936H97.2564V39.5736H98.6154V45.9996ZM102.257 39.5736H103.481V42.6786C103.481 42.8286 103.478 42.9966 103.472 43.1826C103.466 43.3686 103.46 43.5516 103.454 43.7316C103.448 43.9056 103.442 44.0586 103.436 44.1906C103.43 44.3166 103.424 44.4036 103.418 44.4516H103.445L106.415 39.5736H108.044V45.9996H106.829V42.9126C106.829 42.7506 106.832 42.5736 106.838 42.3816C106.844 42.1836 106.85 41.9946 106.856 41.8146C106.868 41.6346 106.877 41.4786 106.883 41.3466C106.895 41.2086 106.904 41.1186 106.91 41.0766H106.874L103.895 45.9996H102.257V39.5736ZM116.128 41.0766C116.128 41.5086 115.975 41.8566 115.669 42.1206C115.363 42.3846 114.973 42.5496 114.499 42.6156V42.6426C115.087 42.7026 115.537 42.8676 115.849 43.1376C116.167 43.4016 116.326 43.7466 116.326 44.1726C116.326 44.7366 116.095 45.1986 115.633 45.5586C115.177 45.9126 114.505 46.0896 113.617 46.0896C113.131 46.0896 112.699 46.0596 112.321 45.9996C111.949 45.9396 111.625 45.8526 111.349 45.7386V44.5956C111.535 44.6856 111.745 44.7636 111.979 44.8296C112.213 44.8896 112.45 44.9376 112.69 44.9736C112.93 45.0036 113.152 45.0186 113.356 45.0186C113.926 45.0186 114.337 44.9376 114.589 44.7756C114.847 44.6076 114.976 44.3736 114.976 44.0736C114.976 43.7676 114.79 43.5456 114.418 43.4076C114.046 43.2636 113.545 43.1916 112.915 43.1916H112.312V42.1296H112.852C113.362 42.1296 113.758 42.0966 114.04 42.0306C114.322 41.9646 114.52 41.8686 114.634 41.7426C114.748 41.6166 114.805 41.4666 114.805 41.2926C114.805 41.0706 114.706 40.8966 114.508 40.7706C114.316 40.6386 114.025 40.5726 113.635 40.5726C113.305 40.5726 112.993 40.6206 112.699 40.7166C112.411 40.8126 112.141 40.9386 111.889 41.0946L111.295 40.1856C111.625 39.9696 111.991 39.7986 112.393 39.6726C112.795 39.5466 113.272 39.4836 113.824 39.4836C114.55 39.4836 115.114 39.6336 115.516 39.9336C115.924 40.2336 116.128 40.6146 116.128 41.0766ZM123.485 45.9996L123.017 44.4696H120.677L120.209 45.9996H118.742L121.01 39.5466H122.675L124.952 45.9996H123.485ZM122.693 43.3266L122.225 41.8326C122.195 41.7306 122.156 41.6016 122.108 41.4456C122.06 41.2896 122.012 41.1306 121.964 40.9686C121.916 40.8066 121.877 40.6656 121.847 40.5456C121.817 40.6656 121.775 40.8156 121.721 40.9956C121.673 41.1696 121.625 41.3376 121.577 41.4996C121.535 41.6556 121.502 41.7666 121.478 41.8326L121.019 43.3266H122.693ZM133.83 44.9196V47.8716H132.516V45.9996H127.791V39.5736H129.15V44.8656H131.517V39.5736H132.876V44.9196H133.83ZM136.847 39.5736H138.071V42.6786C138.071 42.8286 138.068 42.9966 138.062 43.1826C138.056 43.3686 138.05 43.5516 138.044 43.7316C138.038 43.9056 138.032 44.0586 138.026 44.1906C138.02 44.3166 138.014 44.4036 138.008 44.4516H138.035L141.005 39.5736H142.634V45.9996H141.419V42.9126C141.419 42.7506 141.422 42.5736 141.428 42.3816C141.434 42.1836 141.44 41.9946 141.446 41.8146C141.458 41.6346 141.467 41.4786 141.473 41.3466C141.485 41.2086 141.494 41.1186 141.5 41.0766H141.464L138.485 45.9996H136.847V39.5736ZM146.282 39.5736H147.506V42.6786C147.506 42.8286 147.503 42.9966 147.497 43.1826C147.491 43.3686 147.485 43.5516 147.479 43.7316C147.473 43.9056 147.467 44.0586 147.461 44.1906C147.455 44.3166 147.449 44.4036 147.443 44.4516H147.47L150.44 39.5736H152.069V45.9996H150.854V42.9126C150.854 42.7506 150.857 42.5736 150.863 42.3816C150.869 42.1836 150.875 41.9946 150.881 41.8146C150.893 41.6346 150.902 41.4786 150.908 41.3466C150.92 41.2086 150.929 41.1186 150.935 41.0766H150.899L147.92 45.9996H146.282V39.5736Z" />
    </symbol>
    <symbol id="place" viewBox="0 0 15 21">
      <path d="M13.4221 5.57154C13.3564 5.32651 13.2229 5.06541 13.1241 4.83682C11.9424 2.01226 9.36028 1 7.27539 1C4.48437 1 1.4104 2.86131 1 6.69791V7.48175C1 7.51446 1.01134 7.80831 1.02744 7.9553C1.2575 9.78373 2.70816 11.7269 3.79157 13.5554C4.95717 15.5144 6.16664 17.4414 7.36491 19.3677C8.10379 18.1107 8.84 16.8371 9.56205 15.6126C9.75883 15.2532 9.98726 14.8941 10.1843 14.5511C10.3156 14.3227 10.5664 14.0943 10.681 13.8818C11.8466 11.7594 13.7227 9.62069 13.7227 7.51442V6.64915C13.7227 6.42081 13.4381 5.62078 13.4221 5.57154ZM7.32648 9.50641C6.50607 9.50641 5.60806 9.09841 5.16481 7.97166C5.09877 7.7923 5.1041 7.43286 5.1041 7.39993V6.8938C5.1041 5.4574 6.33041 4.80419 7.39725 4.80419C8.71063 4.80419 9.72642 5.84925 9.72642 7.15549C9.72642 8.46169 8.63987 9.50641 7.32648 9.50641Z" />
    </symbol>
    <symbol id="search" viewBox="0 0 17 17">
      <circle cx="7" cy="7" r="6" stroke-width="2" fill="none"/>
      <path d="M11 11L16 16" stroke-width="2"/>
    </symbol>
    <symbol id="rating" viewBox="0 0 16 16" width="16" height="16">
      <path fill-rule="evenodd" clip-rule="evenodd" d="M15.0588 2.82353C15.3084 2.82353 15.5478 2.92269 15.7243 3.09919C15.9008 3.2757 16 3.51509 16 3.76471V16H14.1176V3.76471C14.1176 3.51509 14.2168 3.2757 14.3933 3.09919C14.5698 2.92269 14.8092 2.82353 15.0588 2.82353ZM10.3529 5.64706C10.6026 5.64706 10.8419 5.74622 11.0185 5.92272C11.195 6.09923 11.2941 6.33862 11.2941 6.58824V16H9.41177V6.58824C9.41177 6.33862 9.51092 6.09923 9.68743 5.92272C9.86393 5.74622 10.1033 5.64706 10.3529 5.64706ZM5.64706 0C5.89667 0 6.13607 0.0991594 6.31257 0.275664C6.48908 0.452169 6.58824 0.691561 6.58824 0.941176V16H4.70588V0.941176C4.70588 0.691561 4.80504 0.452169 4.98155 0.275664C5.15805 0.0991594 5.39744 0 5.64706 0V0ZM0.941176 7.52941C1.19079 7.52941 1.43018 7.62857 1.60669 7.80508C1.78319 7.98158 1.88235 8.22097 1.88235 8.47059V16H0V8.47059C0 8.22097 0.0991594 7.98158 0.275664 7.80508C0.452169 7.62857 0.691561 7.52941 0.941176 7.52941Z" />
    </symbol>
    <symbol id="cart" viewBox="0 0 22 18">
      <path d="M8.09827 3.77052H20.6047L16.8866 11.3894H7.76026L3.36609 1H1" stroke-width="2" stroke-linecap="round" stroke-linejoin="round"/>
      <path d="M8.78809 15.5447C8.78809 16.163 8.30507 16.6226 7.76001 16.6226C7.21495 16.6226 6.73193 16.163 6.73193 15.5447C6.73193 14.9264 7.21495 14.4668 7.76001 14.4668C8.30507 14.4668 8.78809 14.9264 8.78809 15.5447Z" stroke-width="2"/>
      <path d="M17.5767 15.5447C17.5767 16.163 17.0936 16.6226 16.5486 16.6226C16.0035 16.6226 15.5205 16.163 15.5205 15.5447C15.5205 14.9264 16.0035 14.4668 16.5486 14.4668C17.0936 14.4668 17.5767 14.9264 17.5767 15.5447Z" stroke-width="2"/>
    </symbol>
    <symbol id="like" viewBox="0 0 17 16">
      <path d="M15.7952 1.73848C14.9919 0.934849 13.8821 0.533203 12.4653 0.533203C12.0732 0.533203 11.6731 0.602856 11.2652 0.742095C10.8572 0.881435 10.4777 1.06942 10.127 1.30592C9.77585 1.54236 9.47408 1.76439 9.22092 1.97168C8.96806 2.17904 8.72766 2.3994 8.50002 2.6326C8.27228 2.3994 8.03194 2.17904 7.77905 1.97168C7.52599 1.76439 7.22408 1.54249 6.873 1.30592C6.52199 1.06932 6.1425 0.881469 5.73459 0.742095C5.32673 0.60289 4.92664 0.533203 4.53455 0.533203C3.11783 0.533203 2.00797 0.934951 1.20479 1.73848C0.40162 2.54194 0 3.65639 0 5.08194C0 5.51609 0.0744295 5.96336 0.222989 6.42318C0.371549 6.88325 0.540843 7.27533 0.730539 7.59925C0.920201 7.92314 1.13528 8.239 1.37562 8.54682C1.61595 8.85461 1.79159 9.06674 1.90214 9.18337C2.01279 9.3 2.09978 9.38433 2.16301 9.43621L8.08258 15.2874C8.19645 15.4041 8.33557 15.4626 8.49998 15.4626C8.66439 15.4626 8.80362 15.4041 8.91742 15.2874L14.8276 9.45545C16.2759 7.97183 17 6.51388 17 5.0818C17 3.65616 16.5984 2.54181 15.7952 1.73848ZM14.0022 8.54195L8.50002 13.9752L2.98841 8.53215C1.80571 7.32071 1.21446 6.17041 1.21446 5.0818C1.21446 4.55702 1.28245 4.09365 1.41835 3.692C1.55435 3.29029 1.72826 2.97106 1.94012 2.73456C2.15201 2.49799 2.40969 2.30538 2.71325 2.15623C3.01699 2.00722 3.31421 1.90676 3.60508 1.85495C3.89595 1.8032 4.2058 1.77729 4.53472 1.77729C4.86354 1.77729 5.21777 1.85981 5.59723 2.02509C5.97662 2.19031 6.32604 2.39767 6.64539 2.6471C6.96481 2.89671 7.23834 3.12995 7.46611 3.34694C7.69375 3.56414 7.88341 3.76326 8.03523 3.94471C8.149 4.08732 8.30407 4.15861 8.50005 4.15861C8.69609 4.15861 8.851 4.08732 8.9649 3.94471C9.11668 3.76326 9.30648 3.56403 9.53412 3.34694C9.7618 3.12995 10.0354 2.89681 10.3546 2.6471C10.6741 2.39767 11.0235 2.19031 11.4031 2.02509C11.7824 1.85985 12.1367 1.77729 12.4656 1.77729C12.7944 1.77729 13.1042 1.8032 13.3952 1.85495C13.6862 1.90673 13.9834 2.00722 14.287 2.15623C14.5906 2.30534 14.8483 2.4981 15.0601 2.73456C15.272 2.97106 15.446 3.29029 15.582 3.692C15.7177 4.09365 15.7857 4.55702 15.7857 5.0818C15.7856 6.17041 15.1913 7.32391 14.0022 8.54195Z"/>
    </symbol>
    <symbol id="arrow-down" viewBox="0 0 11 7">
      <path d="M1 1L5.5 5L10 1" stroke-width="2"/>
    </symbol>
    <symbol id="close" viewBox="0 0 9 9">
      <path d="M5.29617 4.50009L8.83546 0.960808C9.05535 0.741104 9.05535 0.384623 8.83546 0.164919C8.61556 -0.054973 8.25946 -0.054973 8.03957 0.164919L4.50028 3.7042L0.960808 0.164919C0.740916 -0.054973 0.384811 -0.054973 0.164919 0.164919C-0.054973 0.384623 -0.054973 0.741104 0.164919 0.960808L3.70439 4.50009L0.164919 8.03938C-0.054973 8.25908 -0.054973 8.61556 0.164919 8.83527C0.274865 8.94503 0.418958 9 0.562864 9C0.706769 9 0.850862 8.94503 0.960808 8.83508L4.50028 5.29579L8.03957 8.83508C8.14951 8.94503 8.29361 9 8.43751 9C8.58142 9 8.72551 8.94503 8.83546 8.83508C9.05535 8.61538 9.05535 8.2589 8.83546 8.03919L5.29617 4.50009Z" fill="black"/>
    </symbol>
    <symbol id="search" viewBox="0 0 21 21">
      <circle cx="8.75" cy="8.75" r="7.75" stroke="white" stroke-width="2" fill="none"/>
      <path d="M13.75 13.75L20 20" stroke="white" stroke-width="2"/>
    </symbol>
    <symbol id="arrow-triangle" viewBox="0 0 7 10">
      <path d="M7 5L0.25 9.33013L0.25 0.669872L7 5Z" fill="#C4C4C4"/>
    </symbol>
    <symbol id="vk" viewBox="0 0 16 9">
      <path d="M14.6112 0.379092L12.1434 0.379092C12.0426 0.379091 11.9438 0.4064 11.8573 0.458113C11.7709 0.509825 11.7001 0.584006 11.6525 0.672762C11.6525 0.672762 10.6682 2.48546 10.352 3.09601C9.50148 4.73847 8.9507 4.22284 8.9507 3.46056V0.832219C8.9507 0.612586 8.86345 0.401949 8.70815 0.246645C8.55284 0.0913406 8.34221 0.00409179 8.12257 0.00409179L6.26707 0.00409179C6.01438 -0.0146959 5.76109 0.0314273 5.53124 0.138081C5.30139 0.244735 5.10263 0.408377 4.95382 0.613467C4.95382 0.613467 5.89602 0.461127 5.89602 1.73065C5.89602 2.04546 5.91223 2.95107 5.92701 3.71065C5.92979 3.82258 5.89817 3.93268 5.8364 4.02606C5.77463 4.11945 5.68569 4.19164 5.5816 4.23288C5.4775 4.27412 5.36326 4.28242 5.25429 4.25667C5.14532 4.23092 5.04688 4.17236 4.97226 4.08888C4.21277 3.03257 3.58367 1.88839 3.09861 0.681192C3.05695 0.590886 2.99026 0.514425 2.90646 0.460878C2.82266 0.407332 2.72525 0.378947 2.6258 0.379092C2.0906 0.379092 1.01961 0.379092 0.383593 0.379092C0.321917 0.378672 0.261062 0.393232 0.206255 0.42152C0.151448 0.449808 0.104327 0.490978 0.0689419 0.541495C0.0335565 0.592011 0.0109641 0.650363 0.00310546 0.711538C-0.00475314 0.772712 0.00235703 0.834879 0.0238252 0.892699C0.704668 2.76024 3.63752 8.62909 6.98508 8.62909H8.39406C8.54169 8.62909 8.68328 8.57044 8.78767 8.46605C8.89205 8.36166 8.9507 8.22008 8.9507 8.07245V7.22166C8.9507 7.11493 8.98193 7.01053 9.04053 6.92133C9.09913 6.83212 9.18255 6.76202 9.28051 6.71964C9.37847 6.67727 9.48668 6.66448 9.59182 6.68285C9.69696 6.70122 9.79443 6.74995 9.87221 6.82303L11.5587 8.40756C11.7101 8.54986 11.9101 8.62908 12.1179 8.62909H14.3326C15.4007 8.62909 15.4007 7.88791 14.8183 7.31439C14.4085 6.91076 12.9296 5.35191 12.9296 5.35191C12.8029 5.22071 12.7274 5.04853 12.7166 4.8665C12.7058 4.68446 12.7605 4.50457 12.8708 4.35934C13.3488 3.73027 14.1307 2.70053 14.4623 2.25939C14.9155 1.65644 15.7359 0.379092 14.6112 0.379092Z" fill="#999999"/>
    </symbol>
    <symbol id="fb" viewBox="0 0 7 14">
      <path d="M6.5625 4.75H4.125V3.25C4.125 3.05109 4.20402 2.86032 4.34467 2.71967C4.48532 2.57902 4.67609 2.5 4.875 2.5H6.375V0.25L4.5 0.25C3.70435 0.25 2.94129 0.56607 2.37868 1.12868C1.81607 1.69129 1.5 2.45435 1.5 3.25L1.5 4.75H0L0 7H1.5L1.5 13.75H4.125L4.125 7H6L6.5625 4.75Z" fill="#999999"/>
    </symbol>
    <symbol id="inst" viewBox="0 0 18 18" >
      <path opacity="0.99" d="M11.4792 1.375C12.2304 1.3759 12.9505 1.69226 13.4817 2.25467C14.0129 2.81709 14.3117 3.57963 14.3125 4.375L14.3125 9.625C14.3117 10.4204 14.0129 11.1829 13.4817 11.7453C12.9505 12.3077 12.2304 12.6241 11.4792 12.625L6.52083 12.625C5.76965 12.6241 5.04947 12.3077 4.5183 11.7453C3.98713 11.1829 3.68835 10.4204 3.6875 9.625L3.6875 4.375C3.68835 3.57963 3.98713 2.81709 4.5183 2.25467C5.04947 1.69226 5.76965 1.3759 6.52083 1.375L11.4792 1.375ZM11.4792 0.25L6.52083 0.25C5.48759 0.25 4.49667 0.684597 3.76606 1.45818C3.03545 2.23177 2.625 3.28098 2.625 4.375L2.625 9.625C2.625 10.719 3.03545 11.7682 3.76606 12.5418C4.49667 13.3154 5.48759 13.75 6.52083 13.75L11.4792 13.75C12.5124 13.75 13.5033 13.3154 14.2339 12.5418C14.9645 11.7682 15.375 10.719 15.375 9.625L15.375 4.375C15.375 3.28098 14.9645 2.23177 14.2339 1.45818C13.5033 0.684597 12.5124 0.25 11.4792 0.25Z" fill="#999999"/>
      <path d="M9 4.75C9.42029 4.75 9.83113 4.88196 10.1806 5.12919C10.53 5.37643 10.8024 5.72783 10.9632 6.13896C11.1241 6.5501 11.1662 7.0025 11.0842 7.43895C11.0022 7.87541 10.7998 8.27632 10.5026 8.59099C10.2054 8.90566 9.82678 9.11995 9.41457 9.20677C9.00236 9.29358 8.57509 9.24903 8.1868 9.07873C7.79851 8.90843 7.46663 8.62004 7.23313 8.25003C6.99963 7.88002 6.875 7.44501 6.875 7C6.87564 6.40347 7.09972 5.83156 7.4981 5.40975C7.89648 4.98794 8.43661 4.75067 9 4.75ZM9 3.625C8.36957 3.625 7.7533 3.82294 7.22912 4.19379C6.70494 4.56464 6.29639 5.09174 6.05514 5.70844C5.81388 6.32514 5.75076 7.00374 5.87375 7.65843C5.99674 8.31312 6.30032 8.91448 6.7461 9.38648C7.19188 9.85849 7.75984 10.1799 8.37815 10.3102C8.99646 10.4404 9.63737 10.3735 10.2198 10.1181C10.8022 9.86265 11.3001 9.43006 11.6503 8.87505C12.0006 8.32003 12.1875 7.66751 12.1875 7C12.1875 6.10489 11.8517 5.24645 11.2539 4.61351C10.6561 3.98058 9.84538 3.625 9 3.625Z" fill="#999999"/>
      <path d="M12.3289 4.22461C12.7201 4.22461 13.0373 3.88882 13.0373 3.47461C13.0373 3.0604 12.7201 2.72461 12.3289 2.72461C11.9377 2.72461 11.6206 3.0604 11.6206 3.47461C11.6206 3.88882 11.9377 4.22461 12.3289 4.22461Z" fill="#999999"/>
    </symbol>
    <symbol id="ok" viewBox="0 0 18 18">
      <path d="M9 1.75C9.29667 1.75 9.58668 1.83797 9.83336 2.0028C10.08 2.16762 10.2723 2.40189 10.3858 2.67597C10.4994 2.95006 10.5291 3.25166 10.4712 3.54264C10.4133 3.83361 10.2704 4.10088 10.0607 4.31066C9.85088 4.52044 9.58361 4.6633 9.29264 4.72118C9.00167 4.77906 8.70007 4.74935 8.42598 4.63582C8.15189 4.52229 7.91762 4.33003 7.7528 4.08335C7.58798 3.83668 7.5 3.54667 7.5 3.25C7.50045 2.85231 7.65863 2.47104 7.93984 2.18984C8.22105 1.90863 8.60232 1.75045 9 1.75ZM9 -0.5C8.25832 -0.5 7.5333 -0.280066 6.91661 0.131989C6.29993 0.544044 5.81928 1.12971 5.53545 1.81494C5.25162 2.50016 5.17736 3.25416 5.32206 3.98159C5.46675 4.70902 5.8239 5.3772 6.34835 5.90165C6.8728 6.4261 7.54098 6.78325 8.26841 6.92795C8.99584 7.07264 9.74984 6.99838 10.4351 6.71455C11.1203 6.43072 11.706 5.95007 12.118 5.33339C12.5301 4.7167 12.75 3.99168 12.75 3.25C12.75 2.25544 12.3549 1.30161 11.6517 0.59835C10.9484 -0.104912 9.99456 -0.5 9 -0.5Z" fill="#999999"/>
      <path d="M9.00018 10.1867C7.72433 10.1874 6.47224 9.84158 5.37762 9.18616C5.13921 9.04259 4.96753 8.81028 4.90028 8.54023C4.83302 8.27019 4.87569 7.98449 5.01891 7.74588C5.16214 7.50727 5.39421 7.33526 5.66416 7.26762C5.9341 7.19998 6.21986 7.24224 6.45868 7.38513C7.2434 7.8436 8.13755 8.08121 9.04635 8.07276C9.95514 8.06431 10.8447 7.81012 11.6208 7.33713C11.7377 7.26354 11.868 7.21376 12.0042 7.19062C12.1404 7.16748 12.2798 7.17144 12.4144 7.20228C12.5491 7.23312 12.6763 7.29022 12.7889 7.37033C12.9014 7.45043 12.9971 7.55196 13.0703 7.66909C13.1435 7.78622 13.1929 7.91665 13.2157 8.05291C13.2384 8.18917 13.234 8.32858 13.2028 8.46314C13.1716 8.59771 13.1141 8.72478 13.0337 8.83709C12.9532 8.9494 12.8514 9.04474 12.7341 9.11763C11.6145 9.81738 10.3205 10.1878 9.00018 10.1867Z" fill="#999999"/>
      <path opacity="0.9" d="M12.0002 14.199C11.8623 14.1992 11.7256 14.1721 11.5982 14.1193C11.4707 14.0665 11.355 13.989 11.2576 13.8914L9.00023 11.634L6.7429 13.8914C6.64549 13.9892 6.52974 14.0669 6.40227 14.1199C6.27481 14.173 6.13813 14.2004 6.00006 14.2005C5.86199 14.2007 5.72525 14.1737 5.59765 14.1209C5.47006 14.0682 5.35412 13.9908 5.25647 13.8932C5.15881 13.7956 5.08137 13.6797 5.02856 13.5521C4.97576 13.4245 4.94863 13.2878 4.94873 13.1497C4.94883 13.0117 4.97616 12.875 5.02915 12.7475C5.08214 12.62 5.15976 12.5042 5.25755 12.4067L9.00023 8.66406L12.7429 12.4067C12.8897 12.5536 12.9897 12.7407 13.0302 12.9444C13.0707 13.148 13.0498 13.3591 12.9704 13.551C12.8909 13.7428 12.7563 13.9068 12.5836 14.0221C12.4109 14.1375 12.2079 14.199 12.0002 14.199Z" fill="#999999"/>
      <defs>
      <clipPath id="clip0">
      </clipPath>
      </defs>
    </symbol>
    <symbol id="tw" viewBox="0 0 18 18">
      <path d="M12 7C13.6569 7 15 5.65685 15 4C15 2.34315 13.6569 1 12 1C10.3431 1 9 2.34315 9 4C9 5.65685 10.3431 7 12 7Z" fill="#999999"/>
      <path d="M9.4377 4.62551C9.28137 4.62551 9.00021 4.94975 9.00021 5.12553C9.00021 6.81628 8.32856 8.43779 7.13302 9.63333C5.93747 10.8289 4.31597 11.5005 2.62521 11.5005C2.30244 11.4981 1.98033 11.4712 1.66162 11.4201C2.95023 12.2859 4.44999 12.7852 6.00046 12.8644C7.55093 12.9436 9.09376 12.5998 10.4639 11.8697C11.834 11.1397 12.9799 10.0509 13.779 8.71983C14.578 7.38875 15.0001 5.86549 15.0002 4.313C15.0002 3.76128 11.4884 4.62551 9.4377 4.62551Z" fill="#999999"/>
      <path d="M9.43768 4.62647C8.19651 4.62711 6.97011 4.35716 5.84393 3.83542C4.71774 3.31368 3.71883 2.55269 2.91679 1.60547C2.65506 2.05287 2.51569 2.56127 2.5127 3.07959C2.5127 3.8711 2.82712 4.63019 3.3868 5.18987C3.94648 5.74955 4.70556 6.06398 5.49707 6.06399C7.09068 6.06399 9.9209 6.08097 10.1072 4.59264C9.8856 4.60986 9.66372 4.62647 9.43768 4.62647Z" fill="#999999"/>
      <path d="M3.9346 5.53107C3.43828 5.52781 2.9508 5.39941 2.51727 5.15776C2.51704 5.17319 2.5127 5.18747 2.5127 5.20294C2.5127 5.99445 2.82712 6.75354 3.38681 7.31322C3.94649 7.8729 4.70558 8.18733 5.49709 8.18733C7.14531 8.18733 9.45334 6.99183 9.45334 5.3436C9.45334 4.21134 5.56735 5.53107 3.9346 5.53107Z" fill="#999999"/>
      <path d="M5.79477 7.74848C5.46223 7.96394 5.08947 8.10977 4.69901 8.17717C4.30855 8.24457 3.90847 8.23214 3.52295 8.14062C3.70286 8.75738 4.0776 9.29932 4.59113 9.68538C5.10466 10.0714 5.72938 10.2809 6.37184 10.2824C7.2677 10.1869 8.10386 9.7875 8.74121 9.15072C9.37855 8.51394 9.77865 7.67814 9.87495 6.78236C9.87495 5.3622 6.62118 7.21777 5.79477 7.74848Z" fill="#999999"/>
      <path d="M13.208 2.03496C12.2164 2.03496 11.9813 3.28026 13.2642 3.28026C13.8875 3.27887 14.4945 3.08177 14.9997 2.71679C15.5049 2.3518 15.8827 1.83736 16.0797 1.24609C15.2108 1.76231 14.2187 2.03482 13.208 2.03496Z" fill="#999999"/>
      <path d="M14.1219 2.90149C13.3652 2.90247 12.6161 2.75122 11.919 2.45674C9.88779 1.59761 8.65258 4.96399 11.7781 4.96399C12.7277 4.96397 13.6619 4.72466 14.4945 4.26817C15.3271 3.81168 16.0312 3.15273 16.5419 2.35219C15.7861 2.71309 14.9594 2.90076 14.1219 2.90149Z" fill="#999999"/>
    </symbol>
    <symbol id="yb" viewBox="0 0 18 18">
      <path d="M16.3555 10.1463C16.3114 10.6377 16.0957 11.098 15.7461 11.4462C15.3965 11.7945 14.9353 12.0084 14.4437 12.0505C13.268 12.1481 11.5253 12.25 9.37508 12.25C6.78494 12.25 4.82996 12.1441 3.56632 12.0449C3.07274 12.0054 2.60902 11.7927 2.25714 11.4443C1.90526 11.0959 1.68787 10.6344 1.64342 10.1412C1.56647 9.3374 1.5 8.28147 1.5 7.03173C1.5 5.7501 1.56701 4.67523 1.64438 3.86126C1.6884 3.36766 1.9056 2.90554 2.25754 2.55668C2.60949 2.20781 3.07349 1.99468 3.56746 1.955C4.83109 1.8558 6.78569 1.75 9.37508 1.75C11.5253 1.75 13.268 1.8519 14.4437 1.94946C14.9353 1.99157 15.3964 2.20552 15.7461 2.55376C16.0957 2.902 16.3114 3.36226 16.3555 3.85375C16.4329 4.66338 16.5 5.73105 16.5 7C16.5 8.26895 16.4329 9.33662 16.3555 10.1463Z" fill="#999999"/>
      <path d="M7.33203 9.20538L7.33203 4.79688L11.6805 7.00113L7.33203 9.20538Z" fill="white"/>
    </symbol>
    <symbol id="mail" viewBox="0 0 18 14">
      <path d="M16 0H2C1.46957 0 0.960859 0.210714 0.585786 0.585786C0.210714 0.960859 0 1.46957 0 2V12C0 12.5304 0.210714 13.0391 0.585786 13.4142C0.960859 13.7893 1.46957 14 2 14H16C16.5304 14 17.0391 13.7893 17.4142 13.4142C17.7893 13.0391 18 12.5304 18 12V2C18 1.46957 17.7893 0.960859 17.4142 0.585786C17.0391 0.210714 16.5304 0 16 0ZM16 4L9 9L2 4V2L9 7L16 2V4Z" fill="#438BE3"/>
    </symbol>
    <symbol id="back-arrow" viewBox="0 0 15 13">
      <path d="M1 6.5L8 1M1 6.5L8 12M1 6.5H15" stroke="black"/>
    </symbol>
    <symbol id="arrow-menu-right" viewBox="0 0 7 11">
      <path d="M1.5 10L5.5 5.5L1.5 1" stroke-width="2"/>
    </symbol>
    <symbol id="soc-vk" viewBox="0 0 16 10">
      <path d="M15.1605 1.25019H12.6927C12.5919 1.25018 12.4931 1.27749 12.4067 1.32921C12.3202 1.38092 12.2494 1.4551 12.2018 1.54386C12.2018 1.54386 11.2175 3.35655 10.9013 3.9671C10.0508 5.60956 9.50002 5.09394 9.50002 4.33166V1.70331C9.50002 1.48368 9.41277 1.27304 9.25746 1.11774C9.10216 0.962434 8.89152 0.875186 8.67189 0.875186H6.81639C6.5637 0.856398 6.3104 0.902521 6.08056 1.00917C5.85071 1.11583 5.65194 1.27947 5.50314 1.48456C5.50314 1.48456 6.44533 1.33222 6.44533 2.60175C6.44533 2.91655 6.46155 3.82217 6.47632 4.58174C6.47911 4.69368 6.44748 4.80377 6.38571 4.89716C6.32395 4.99055 6.23501 5.06273 6.13091 5.10397C6.02682 5.14521 5.91257 5.15351 5.80361 5.12776C5.69464 5.10201 5.5962 5.04345 5.52157 4.95998C4.76209 3.90367 4.13298 2.75948 3.64792 1.55229C3.60627 1.46198 3.53958 1.38552 3.45578 1.33197C3.37197 1.27843 3.27457 1.25004 3.17512 1.25019C2.63992 1.25019 1.56893 1.25019 0.932909 1.25019C0.871233 1.24977 0.810378 1.26433 0.755571 1.29261C0.700764 1.3209 0.653644 1.36207 0.618258 1.41259C0.582873 1.46311 0.56028 1.52146 0.552422 1.58263C0.544563 1.64381 0.551673 1.70597 0.573142 1.76379C1.25398 3.63134 4.18684 9.50019 7.53439 9.50019H8.94338C9.09101 9.50018 9.23259 9.44154 9.33698 9.33715C9.44137 9.23275 9.50002 9.09117 9.50002 8.94354V8.09275C9.50002 7.98602 9.53124 7.88162 9.58985 7.79242C9.64845 7.70322 9.73187 7.63311 9.82983 7.59074C9.92779 7.54836 10.036 7.53557 10.1411 7.55394C10.2463 7.57231 10.3437 7.62104 10.4215 7.69413L12.108 9.27865C12.2594 9.42095 12.4594 9.50018 12.6673 9.50019H14.8819C15.95 9.50019 15.95 8.75901 15.3676 8.18548C14.9578 7.78185 13.4789 6.22301 13.4789 6.22301C13.3522 6.0918 13.2767 5.91963 13.2659 5.73759C13.2551 5.55556 13.3098 5.37567 13.4201 5.23044C13.8981 4.60137 14.68 3.57162 15.0116 3.13049C15.4649 2.52753 16.2852 1.25019 15.1605 1.25019Z" />
    </symbol>
    <symbol id="soc-fb" viewBox="0 0 7 14">
      <path d="M6.5625 4.75H4.125V3.25C4.125 3.05109 4.20402 2.86032 4.34467 2.71967C4.48532 2.57902 4.67609 2.5 4.875 2.5H6.375V0.25H4.5C3.70435 0.25 2.94129 0.56607 2.37868 1.12868C1.81607 1.69129 1.5 2.45435 1.5 3.25V4.75H0V7H1.5V13.75H4.125V7H6L6.5625 4.75Z" />
    </symbol>
    <symbol id="soc-tw" viewBox="0 0 16 12">
      <path d="M11 6C12.6569 6 14 4.65685 14 3C14 1.34315 12.6569 0 11 0C9.34315 0 8 1.34315 8 3C8 4.65685 9.34315 6 11 6Z" />
      <path d="M8.4377 3.62551C8.28137 3.62551 8.00021 3.94975 8.00021 4.12553C8.00021 5.81628 7.32856 7.43779 6.13302 8.63333C4.93747 9.82888 3.31597 10.5005 1.62521 10.5005C1.30244 10.4981 0.980326 10.4712 0.661621 10.4201C1.95023 11.2859 3.44999 11.7852 5.00046 11.8644C6.55093 11.9436 8.09376 11.5998 9.4639 10.8697C10.834 10.1397 11.9799 9.0509 12.779 7.71983C13.578 6.38875 14.0001 4.86549 14.0002 3.313C14.0002 2.76128 10.4884 3.62551 8.4377 3.62551Z" />
      <path d="M8.43768 3.62452C7.19651 3.62516 5.97011 3.3552 4.84393 2.83346C3.71774 2.31172 2.71883 1.55074 1.91679 0.603516C1.65506 1.05091 1.51569 1.55932 1.5127 2.07764C1.5127 2.86915 1.82712 3.62823 2.3868 4.18792C2.94648 4.7476 3.70556 5.06203 4.49707 5.06203C6.09068 5.06203 8.9209 5.07901 9.10725 3.59069C8.8856 3.6079 8.66372 3.62452 8.43768 3.62452Z" />
      <path d="M2.9346 4.53107C2.43828 4.52781 1.9508 4.39941 1.51727 4.15776C1.51704 4.17319 1.5127 4.18747 1.5127 4.20294C1.5127 4.99445 1.82712 5.75354 2.38681 6.31322C2.94649 6.8729 3.70558 7.18733 4.49709 7.18733C6.14531 7.18733 8.45334 5.99183 8.45334 4.3436C8.45334 3.21134 4.56735 4.53107 2.9346 4.53107Z" />
      <path d="M4.79477 6.74653C4.46223 6.96199 4.08947 7.10782 3.69901 7.17522C3.30855 7.24262 2.90847 7.23019 2.52295 7.13867C2.70286 7.75543 3.0776 8.29737 3.59113 8.68343C4.10466 9.06949 4.72938 9.27893 5.37184 9.28041C6.2677 9.18491 7.10386 8.78555 7.74121 8.14877C8.37855 7.51199 8.77865 6.67619 8.87495 5.78041C8.87495 4.36024 5.62118 6.21582 4.79477 6.74653Z" />
      <path d="M12.208 1.03496C11.2164 1.03496 10.9813 2.28026 12.2642 2.28026C12.8875 2.27887 13.4945 2.08177 13.9997 1.71679C14.5049 1.3518 14.8827 0.837359 15.0797 0.246094C14.2108 0.762312 13.2187 1.03482 12.208 1.03496Z" />
      <path d="M13.1219 1.90149C12.3652 1.90247 11.6161 1.75122 10.919 1.45674C8.88779 0.597607 7.65258 3.96399 10.7781 3.96399C11.7277 3.96397 12.6619 3.72466 13.4945 3.26817C14.3271 2.81168 15.0312 2.15273 15.5419 1.35219C14.7861 1.71309 13.9594 1.90076 13.1219 1.90149Z" />
    </symbol>
    <symbol id="soc-inst" viewBox="0 0 13 14">
      <path d="M8.80716 0.71875H4.19316C3.71708 0.718749 3.24566 0.818035 2.80582 1.01094C2.36598 1.20384 1.96633 1.48659 1.62969 1.84303C1.29305 2.19947 1.02602 2.62263 0.843828 3.08835C0.66164 3.55406 0.56787 4.05321 0.567871 4.55729V9.44271C0.567871 9.9468 0.661642 10.4459 0.84383 10.9117C1.02602 11.3774 1.29306 11.8005 1.6297 12.157C1.96633 12.5134 2.36598 12.7962 2.80582 12.9891C3.24567 13.182 3.71708 13.2812 4.19316 13.2812H8.80717C9.28325 13.2813 9.75467 13.182 10.1945 12.9891C10.6344 12.7962 11.034 12.5134 11.3706 12.157C11.7073 11.8005 11.9743 11.3774 12.1565 10.9117C12.3387 10.4459 12.4325 9.94679 12.4325 9.4427V4.55729C12.4325 4.05321 12.3387 3.55406 12.1565 3.08834C11.9743 2.62262 11.7073 2.19946 11.3706 1.84302C11.034 1.48658 10.6344 1.20383 10.1945 1.01093C9.75466 0.818027 9.28324 0.718744 8.80716 0.71875Z" fill="none"/>
      <path opacity="0.99" d="M8.97917 1.375C9.73035 1.3759 10.4505 1.69226 10.9817 2.25467C11.5129 2.81709 11.8117 3.57963 11.8125 4.375V9.625C11.8117 10.4204 11.5129 11.1829 10.9817 11.7453C10.4505 12.3077 9.73035 12.6241 8.97917 12.625H4.02083C3.26965 12.6241 2.54947 12.3077 2.0183 11.7453C1.48713 11.1829 1.18835 10.4204 1.1875 9.625V4.375C1.18835 3.57963 1.48713 2.81709 2.0183 2.25467C2.54947 1.69226 3.26965 1.3759 4.02083 1.375H8.97917ZM8.97917 0.25H4.02083C2.98759 0.25 1.99667 0.684597 1.26606 1.45818C0.535453 2.23177 0.125 3.28098 0.125 4.375V9.625C0.125 10.719 0.535453 11.7682 1.26606 12.5418C1.99667 13.3154 2.98759 13.75 4.02083 13.75H8.97917C10.0124 13.75 11.0033 13.3154 11.7339 12.5418C12.4645 11.7682 12.875 10.719 12.875 9.625V4.375C12.875 3.28098 12.4645 2.23177 11.7339 1.45818C11.0033 0.684597 10.0124 0.25 8.97917 0.25Z" />
      <path d="M6.5 4.75C6.92029 4.75 7.33113 4.88196 7.68059 5.12919C8.03004 5.37643 8.30241 5.72783 8.46325 6.13896C8.62408 6.5501 8.66616 7.0025 8.58417 7.43895C8.50218 7.87541 8.29979 8.27632 8.0026 8.59099C7.70542 8.90566 7.32678 9.11995 6.91457 9.20677C6.50236 9.29358 6.07509 9.24903 5.6868 9.07873C5.29851 8.90843 4.96663 8.62004 4.73313 8.25003C4.49963 7.88002 4.375 7.44501 4.375 7C4.37564 6.40347 4.59972 5.83156 4.9981 5.40975C5.39648 4.98794 5.93661 4.75067 6.5 4.75ZM6.5 3.625C5.86957 3.625 5.2533 3.82294 4.72912 4.19379C4.20494 4.56464 3.79639 5.09174 3.55514 5.70844C3.31388 6.32514 3.25076 7.00374 3.37375 7.65843C3.49674 8.31312 3.80032 8.91448 4.2461 9.38648C4.69188 9.85849 5.25984 10.1799 5.87815 10.3102C6.49646 10.4404 7.13737 10.3735 7.7198 10.1181C8.30224 9.86265 8.80006 9.43006 9.15031 8.87505C9.50056 8.32003 9.6875 7.66751 9.6875 7C9.6875 6.10489 9.35168 5.24645 8.7539 4.61351C8.15613 3.98058 7.34538 3.625 6.5 3.625Z" />
      <path d="M9.82894 4.22461C10.2201 4.22461 10.5373 3.88882 10.5373 3.47461C10.5373 3.0604 10.2201 2.72461 9.82894 2.72461C9.43774 2.72461 9.12061 3.0604 9.12061 3.47461C9.12061 3.88882 9.43774 4.22461 9.82894 4.22461Z" />
    </symbol>
    <symbol id="soc-youtube" viewBox="0 0 16 12">
      <path d="M15.3555 9.14625C15.3114 9.63774 15.0957 10.098 14.7461 10.4462C14.3965 10.7945 13.9353 11.0084 13.4437 11.0505C12.268 11.1481 10.5253 11.25 8.37508 11.25C5.78494 11.25 3.82996 11.1441 2.56632 11.0449C2.07274 11.0054 1.60902 10.7927 1.25714 10.4443C0.905257 10.0959 0.687873 9.63436 0.643415 9.1412C0.566473 8.3374 0.5 7.28147 0.5 6.03173C0.5 4.7501 0.567012 3.67523 0.644382 2.86126C0.688399 2.36766 0.905596 1.90554 1.25754 1.55668C1.60949 1.20781 2.07349 0.994678 2.56746 0.954998C3.83109 0.855795 5.78569 0.75 8.37508 0.75C10.5253 0.75 12.268 0.851903 13.4437 0.949463C13.9353 0.99157 14.3964 1.20552 14.7461 1.55376C15.0957 1.902 15.3114 2.36226 15.3555 2.85375C15.4329 3.66338 15.5 4.73105 15.5 6C15.5 7.26895 15.4329 8.33662 15.3555 9.14625Z" />
      <path d="M6.33203 8.20342V3.79492L10.6805 5.99917L6.33203 8.20342Z" fill="white"/>
    </symbol>
    <symbol id="soc-ok" viewBox="0 0 10 16">
      <path d="M5 2.75C5.29667 2.75 5.58668 2.83797 5.83336 3.0028C6.08003 3.16762 6.27229 3.40189 6.38582 3.67597C6.49935 3.95006 6.52906 4.25166 6.47118 4.54264C6.4133 4.83361 6.27044 5.10088 6.06066 5.31066C5.85088 5.52044 5.58361 5.6633 5.29264 5.72118C5.00167 5.77906 4.70007 5.74935 4.42598 5.63582C4.15189 5.52229 3.91762 5.33003 3.7528 5.08335C3.58798 4.83668 3.5 4.54667 3.5 4.25C3.50045 3.85231 3.65863 3.47104 3.93984 3.18984C4.22105 2.90863 4.60232 2.75045 5 2.75ZM5 0.5C4.25832 0.5 3.5333 0.719934 2.91661 1.13199C2.29993 1.54404 1.81928 2.12971 1.53545 2.81494C1.25162 3.50016 1.17736 4.25416 1.32206 4.98159C1.46675 5.70902 1.8239 6.3772 2.34835 6.90165C2.8728 7.4261 3.54098 7.78325 4.26841 7.92795C4.99584 8.07264 5.74984 7.99838 6.43507 7.71455C7.12029 7.43072 7.70596 6.95007 8.11801 6.33339C8.53007 5.7167 8.75 4.99168 8.75 4.25C8.75 3.25544 8.35491 2.30161 7.65165 1.59835C6.94839 0.895088 5.99456 0.5 5 0.5Z" />
      <path d="M5.00018 11.1867C3.72433 11.1874 2.47224 10.8416 1.37762 10.1862C1.13921 10.0426 0.967531 9.81028 0.900276 9.54023C0.833021 9.27019 0.87569 8.98449 1.01891 8.74588C1.16214 8.50727 1.39421 8.33526 1.66416 8.26762C1.9341 8.19998 2.21986 8.24224 2.45868 8.38513C3.2434 8.8436 4.13755 9.08121 5.04635 9.07276C5.95514 9.06431 6.84472 8.81012 7.62078 8.33713C7.7377 8.26354 7.86798 8.21376 8.00417 8.19062C8.14036 8.16748 8.27978 8.17144 8.41444 8.20228C8.5491 8.23312 8.67634 8.29022 8.78889 8.37033C8.90143 8.45043 8.99707 8.55196 9.0703 8.66909C9.14354 8.78622 9.19294 8.91665 9.21568 9.05291C9.23842 9.18917 9.23405 9.32858 9.20281 9.46314C9.17158 9.59771 9.11409 9.72478 9.03366 9.83709C8.95322 9.9494 8.85141 10.0447 8.73407 10.1176C7.61445 10.8174 6.32048 11.1878 5.00018 11.1867Z" />
      <path opacity="0.9" d="M8.00023 15.2009C7.86228 15.2011 7.72565 15.174 7.5982 15.1212C7.47074 15.0684 7.35498 14.991 7.25756 14.8933L5.00023 12.636L2.7429 14.8933C2.64549 14.9912 2.52974 15.0688 2.40227 15.1219C2.27481 15.1749 2.13813 15.2023 2.00006 15.2025C1.86199 15.2027 1.72525 15.1756 1.59765 15.1229C1.47006 15.0701 1.35412 14.9927 1.25647 14.8951C1.15881 14.7975 1.08137 14.6816 1.02856 14.5541C0.975759 14.4265 0.94863 14.2898 0.948731 14.1517C0.948831 14.0136 0.976159 13.8769 1.02915 13.7494C1.08214 13.6219 1.15976 13.5062 1.25755 13.4087L5.00023 9.66602L8.7429 13.4087C8.88972 13.5555 8.9897 13.7426 9.03018 13.9463C9.07067 14.15 9.04985 14.3611 8.97035 14.5529C8.89086 14.7448 8.75626 14.9087 8.58358 15.0241C8.4109 15.1394 8.20789 15.201 8.00023 15.2009Z" />
    </symbol>
    <symbol id="soc-google" viewBox="0 0 19 14">
      <path d="M17.5 5.875V4.375H16V5.875H14.5V7.375H16V8.875H17.5V7.375H19V5.875H17.5Z" fill="#999999"/>
      <path d="M6.99991 5.87508V8.12508H10.5591C10.3096 8.89961 9.81378 9.57135 9.14712 10.0379C8.48046 10.5045 7.67954 10.7404 6.8664 10.7095C6.05327 10.6787 5.2725 10.3829 4.64308 9.86719C4.01365 9.35147 3.57008 8.64413 3.37995 7.85293C3.18982 7.06174 3.26355 6.23008 3.58992 5.48468C3.91629 4.73928 4.47739 4.12101 5.18774 3.72408C5.89808 3.32715 6.71871 3.17333 7.52458 3.28605C8.33045 3.39876 9.07738 3.77185 9.65156 4.34844L11.2426 2.75744C10.2215 1.73025 8.86544 1.10393 7.42138 0.992524C5.97731 0.881115 4.54126 1.29203 3.3747 2.15044C2.20814 3.00885 1.38866 4.25767 1.06547 5.66951C0.742286 7.08134 0.936888 8.5623 1.61385 9.84271C2.2908 11.1231 3.40509 12.1178 4.75382 12.6457C6.10255 13.1736 7.59601 13.1996 8.96227 12.7189C10.3285 12.2382 11.4767 11.2828 12.1978 10.0267C12.9188 8.7706 13.1648 7.2973 12.8909 5.87508H6.99991Z" fill="#999999"/>
    </symbol>
    <symbol id="soc-tg" viewBox="0 0 14 12">
      <path d="M13.1031 0.050856L0.289434 5.0132C-0.11843 5.18314 -0.0844411 5.76095 0.323423 5.8969L3.58633 6.84858L4.80992 10.6893C4.94588 11.0972 5.45571 11.1991 5.72762 10.9272L7.39306 9.22779L10.69 11.641C11.0978 11.9469 11.6756 11.709 11.7776 11.2331L13.9869 0.798606C14.0888 0.288777 13.579 -0.153076 13.1031 0.050856ZM11.5057 2.36208L5.55767 7.63032C5.48969 7.6983 5.45571 7.76628 5.45571 7.83425L5.21779 9.87357C5.21779 9.94155 5.11582 9.94155 5.08183 9.87357L4.13015 6.84858C4.09616 6.71263 4.13015 6.54269 4.2661 6.47471L11.3018 2.12416C11.4717 2.0222 11.6416 2.22613 11.5057 2.36208Z" fill="#999999"/>
    </symbol>
    <symbol id="burger-catalog" viewbox="0 0 15 12">
      <path d="M0 1H15M15 6H0M0 11H15" stroke-width="2"/>
    </symbol>
    <symbol id="menu-user" viewBox="0 0 20 22" width="20" height="22">
      <path d="M6.29082 13.272L7.13193 12.9113L6.37396 12.3984C4.64252 11.2268 3.5 9.23542 3.5 7C3.5 3.42199 6.42199 0.5 10 0.5C13.578 0.5 16.5 3.42199 16.5 7C16.5 9.23542 15.3575 11.2268 13.626 12.3984L12.8681 12.9113L13.7092 13.272C16.9563 14.6646 19.2924 17.806 19.4869 21.5H18.4857C18.2283 17.0274 14.5389 13.5 10 13.5C5.46106 13.5 1.77174 17.0274 1.51434 21.5H0.513133C0.707613 17.806 3.04374 14.6646 6.29082 13.272ZM15.5 7C15.5 3.95059 13.0494 1.5 10 1.5C6.95059 1.5 4.5 3.95059 4.5 7C4.5 10.0494 6.95059 12.5 10 12.5C13.0494 12.5 15.5 10.0494 15.5 7Z"/>
    </symbol>
</svg>
