<svg width="49" height="49" viewBox="0 0 49 49" fill="none" xmlns="http://www.w3.org/2000/svg">
<path d="M15.2388 39.105H3.63861C3.45295 39.105 3.2759 39.0284 3.14861 38.8925C3.02228 38.7566 2.9572 38.5748 2.96965 38.3891L3.50941 30.507C3.52759 30.2457 3.69603 30.018 3.94103 29.9261C4.18603 29.8332 4.46261 29.8926 4.64924 30.0773C5.9307 31.3492 7.63134 32.0488 9.43822 32.0488C11.2441 32.0488 12.9448 31.3492 14.2272 30.0782C14.4904 29.8179 14.9144 29.8198 15.1747 30.0821C15.435 30.3453 15.4331 30.7692 15.1708 31.0295C13.6358 32.5512 11.6002 33.3886 9.43918 33.3886C7.73949 33.3886 6.11828 32.8709 4.75738 31.91L4.35638 37.7651H14.5181L14.2195 33.7245C14.1918 33.3551 14.4693 33.0345 14.8378 33.0068C15.2043 32.98 15.5278 33.2565 15.5556 33.625L15.9078 38.3843C15.9211 38.57 15.857 38.7528 15.7307 38.8896C15.6025 39.0274 15.4254 39.105 15.2388 39.105Z" fill="#438BE3"/>
<path d="M9.43821 29.4308C7.13081 29.4308 5.25311 27.5531 5.25311 25.2457C5.25311 23.6446 6.14411 22.208 7.57965 21.496C8.15962 21.2079 8.78456 21.0615 9.43821 21.0615C11.7456 21.0615 13.6233 22.9392 13.6233 25.2466C13.6233 25.8993 13.4778 26.5252 13.1898 27.1052C12.4758 28.5398 11.0384 29.4308 9.43821 29.4308ZM9.43821 22.4014C8.99415 22.4014 8.56923 22.5009 8.17589 22.6961C7.19876 23.1804 6.59296 24.1575 6.59296 25.2457C6.59296 26.8142 7.86868 28.0909 9.43821 28.0909C10.5264 28.0909 11.5035 27.4851 11.9897 26.5089C12.1849 26.1156 12.2835 25.6907 12.2835 25.2457C12.2835 23.6771 11.0068 22.4014 9.43821 22.4014Z" fill="#438BE3"/>
<path d="M9.43824 33.3888C7.27631 33.3888 5.23974 32.5504 3.70562 31.0288C2.15045 29.4889 1.29486 27.4351 1.29486 25.2454C1.29486 20.755 4.94785 17.1011 9.43824 17.1011C10.357 17.1011 11.2604 17.2532 12.1227 17.5547C14.4454 18.3644 16.3164 20.2363 17.1289 22.5609C17.4295 23.4232 17.5826 24.3267 17.5826 25.2454C17.5826 27.4351 16.726 29.4899 15.1699 31.0297C13.6358 32.5514 11.6002 33.3888 9.43824 33.3888ZM9.43824 18.4409C5.68668 18.4409 2.6347 21.4939 2.6347 25.2454C2.6347 27.0743 3.35056 28.7903 4.64926 30.0765C5.93072 31.3484 7.63137 32.049 9.43824 32.049C11.2442 32.049 12.9448 31.3494 14.2272 30.0784C15.5269 28.7912 16.2427 27.0753 16.2427 25.2454C16.2427 24.4769 16.1154 23.7218 15.8637 23.0021C15.1852 21.0603 13.6224 19.4965 11.6815 18.8199C10.9618 18.5682 10.2067 18.4409 9.43824 18.4409Z" fill="#438BE3"/>
<path d="M9.43821 29.4308C7.13081 29.4308 5.25311 27.5531 5.25311 25.2457C5.25311 23.6446 6.14411 22.208 7.57965 21.496C8.15962 21.2079 8.78456 21.0615 9.43821 21.0615C11.7456 21.0615 13.6233 22.9392 13.6233 25.2466C13.6233 25.8993 13.4778 26.5252 13.1898 27.1052C12.4758 28.5398 11.0384 29.4308 9.43821 29.4308ZM9.43821 22.4014C8.99415 22.4014 8.56923 22.5009 8.17589 22.6961C7.19876 23.1804 6.59296 24.1575 6.59296 25.2457C6.59296 26.8142 7.86868 28.0909 9.43821 28.0909C10.5264 28.0909 11.5035 27.4851 11.9897 26.5089C12.1849 26.1156 12.2835 25.6907 12.2835 25.2457C12.2835 23.6771 11.0068 22.4014 9.43821 22.4014Z" fill="#438BE3"/>
<path d="M16.4973 23.4509C16.4533 23.4509 16.4083 23.4461 16.3633 23.4375C16.1317 23.3906 15.9422 23.225 15.8647 23.0021C15.1862 21.0602 13.6233 19.4964 11.6825 18.8198C11.4595 18.7423 11.2939 18.5528 11.247 18.3212C11.2001 18.0896 11.2776 17.8504 11.4528 17.6915L18.6353 11.1588C18.909 10.91 19.333 10.9301 19.5818 11.2038C19.8306 11.4775 19.8105 11.9014 19.5368 12.1503L13.1247 17.9824C14.656 18.7643 15.9202 20.0286 16.7031 21.5608L24.0196 13.5169C22.3907 12.8451 21.1762 11.4095 20.8059 9.63041C20.7302 9.2677 20.9628 8.9136 21.3255 8.83799C21.6873 8.76238 22.0423 8.99494 22.1179 9.35766C22.45 10.9549 23.7506 12.2259 25.3537 12.5206C25.5929 12.5647 25.7891 12.735 25.8676 12.9657C25.9461 13.1963 25.8925 13.4509 25.7288 13.6308L16.995 23.2327C16.8638 23.3734 16.6839 23.4509 16.4973 23.4509Z" fill="#438BE3"/>
<path d="M24.6292 10.8074C24.4732 10.8074 24.3163 10.7529 24.1899 10.6428L24.099 10.5644C23.9593 10.4428 23.876 10.2686 23.8693 10.0839C23.8626 9.89922 23.9325 9.7193 24.0627 9.58818C24.188 9.46186 24.3603 9.38816 24.5393 9.38721C24.5402 9.38721 24.5402 9.38721 24.5412 9.38721C24.7182 9.38721 24.8905 9.45516 25.0168 9.58053C25.0321 9.59584 25.0474 9.6102 25.0628 9.62455L25.0943 9.65518C25.3566 9.90688 25.369 10.3222 25.124 10.5902C24.991 10.7347 24.8111 10.8074 24.6292 10.8074Z" fill="#438BE3"/>
<path d="M26.0944 13.9275C25.7613 13.9275 25.4293 13.8968 25.1087 13.8375C22.9438 13.4394 21.2537 11.7875 20.8049 9.63039C20.7302 9.26863 20.692 8.89731 20.692 8.52502C20.692 5.54674 23.1152 3.12354 26.0944 3.12354C26.4648 3.12354 26.7643 3.42309 26.7643 3.79346C26.7643 4.16383 26.4648 4.46338 26.0944 4.46338C23.854 4.46338 22.0318 6.28557 22.0318 8.52502C22.0318 8.80543 22.0605 9.08584 22.117 9.35764C22.4491 10.954 23.7497 12.2249 25.3527 12.5197C25.5939 12.5646 25.8437 12.5876 26.0944 12.5876C26.6064 12.5876 27.1041 12.4938 27.5749 12.3091C28.5626 11.9225 29.3761 11.1454 29.8067 10.1749C30.0393 9.65336 30.157 9.09828 30.157 8.52406C30.157 7.59096 29.8326 6.67986 29.244 5.95826C29.0105 5.67211 29.0526 5.25006 29.3397 5.01559C29.6258 4.78207 30.0479 4.82418 30.2824 5.11129C31.0662 6.07119 31.4978 7.28375 31.4978 8.52406C31.4978 9.28777 31.3408 10.0256 31.0317 10.7195C30.4594 12.0086 29.378 13.0422 28.0649 13.5561C27.4371 13.803 26.7739 13.9275 26.0944 13.9275Z" fill="#438BE3"/>
<path d="M28.1951 4.9541C27.8248 4.9541 27.5252 4.65455 27.5252 4.28418C27.5252 3.91381 27.8248 3.61426 28.1951 3.61426H28.1961C28.5665 3.61426 28.866 3.91381 28.866 4.28418C28.866 4.65455 28.5655 4.9541 28.1951 4.9541Z" fill="#438BE3"/>
<path d="M26.0944 11.3731C25.3881 11.3731 24.7096 11.1128 24.1851 10.639L24.099 10.5644C24.0598 10.5309 24.0253 10.4926 23.9956 10.4514C23.5114 9.92412 23.2463 9.24367 23.2463 8.5259C23.2463 7.76602 23.542 7.05111 24.0799 6.51326C24.0885 6.50465 24.0971 6.49604 24.1066 6.48838C24.6426 5.9668 25.347 5.67969 26.0944 5.67969C27.3548 5.67969 28.4497 6.48934 28.8181 7.69424C28.9004 7.96221 28.9425 8.24262 28.9425 8.52686C28.9425 9.28674 28.6468 10.0016 28.109 10.5405C27.5682 11.0773 26.8533 11.3731 26.0944 11.3731ZM25.0465 9.61309L25.0694 9.63318C25.0733 9.63606 25.0761 9.63893 25.079 9.6418C25.3575 9.89445 25.7183 10.0332 26.0934 10.0332C26.4954 10.0332 26.8744 9.87627 27.1605 9.59108C27.4438 9.30684 27.6008 8.92785 27.6008 8.52494C27.6008 8.37373 27.5788 8.22635 27.5357 8.08471C27.3405 7.44637 26.7605 7.01762 26.0934 7.01762C25.6915 7.01762 25.3135 7.17457 25.0273 7.45977C25.0216 7.46551 25.0149 7.47125 25.0091 7.47699C24.7354 7.75932 24.5861 8.13065 24.5861 8.52398C24.5861 8.92211 24.7402 9.29918 25.0206 9.58342C25.0292 9.59395 25.0378 9.60352 25.0465 9.61309Z" fill="#438BE3"/>
<path d="M26.0944 11.373C25.3852 11.373 24.7058 11.1108 24.1794 10.6342C24.1746 10.6294 24.1698 10.6256 24.165 10.6208L24.1392 10.5959C24.1162 10.5739 24.0933 10.5519 24.0703 10.5289C23.5372 9.98727 23.2463 9.27715 23.2463 8.52492C23.2463 7.76504 23.542 7.05014 24.0799 6.51229C24.0885 6.50367 24.0971 6.49506 24.1066 6.4874C24.6426 5.96582 25.347 5.67871 26.0944 5.67871C27.3548 5.67871 28.4497 6.48836 28.8181 7.69326C28.9004 7.96123 28.9425 8.24164 28.9425 8.52588C28.9425 9.28576 28.6468 10.0007 28.109 10.5395C27.5682 11.0773 26.8533 11.373 26.0944 11.373ZM25.0847 9.64656C25.3623 9.89539 25.7202 10.0332 26.0934 10.0332C26.4954 10.0332 26.8744 9.87625 27.1605 9.59105C27.4438 9.30682 27.6008 8.92783 27.6008 8.52492C27.6008 8.37371 27.5788 8.22633 27.5357 8.08469C27.3405 7.44635 26.7605 7.0176 26.0934 7.0176C25.6915 7.0176 25.3135 7.17455 25.0273 7.45975C25.0216 7.46549 25.0149 7.47123 25.0091 7.47697C24.7354 7.7593 24.5861 8.13062 24.5861 8.52396C24.5861 8.92209 24.7402 9.29916 25.0206 9.5834C25.0321 9.59393 25.0465 9.60828 25.0618 9.62359L25.0847 9.64656Z" fill="#438BE3"/>
<path d="M34.79 19.7109C34.6293 19.7109 34.4723 19.6535 34.3488 19.5453L27.3778 13.4375C27.2017 13.2835 27.1194 13.049 27.1596 12.8183C27.1998 12.5877 27.3577 12.3953 27.5759 12.3102C28.5636 11.9235 29.3761 11.1464 29.8068 10.1769C29.8996 9.9683 30.092 9.82092 30.3188 9.78646C30.5446 9.75201 30.7724 9.83527 30.9236 10.0075L36.9568 16.8934C37.1013 17.0589 37.1558 17.2848 37.1022 17.4982C37.0486 17.7116 36.8936 17.8849 36.6878 17.9624C36.0935 18.1854 35.6322 18.6591 35.4236 19.262C35.3509 19.4726 35.1776 19.6334 34.9623 19.6908C34.9049 19.7032 34.8475 19.7109 34.79 19.7109ZM29.0009 13.0777L34.5881 17.9729C34.8092 17.6533 35.0829 17.3748 35.3977 17.146L30.536 11.5981C30.1274 12.1857 29.6039 12.6911 29.0009 13.0777Z" fill="#438BE3"/>
<path d="M32.8252 28.8144H30.0575C29.6871 28.8144 29.3876 28.5149 29.3876 28.1445V22.4272C29.3876 22.1812 29.5225 21.9544 29.7388 21.8376L34.3182 19.3628C34.5259 19.2508 34.7776 19.2556 34.9795 19.3771C35.1824 19.4977 35.3068 19.7169 35.3068 19.9523C35.3068 20.7141 35.6944 21.3984 36.3442 21.7879C36.551 21.9113 36.6744 22.1372 36.6696 22.3774C36.6639 22.6176 36.5299 22.8377 36.3184 22.9516L33.4951 24.4771V28.1435C33.4951 28.5139 33.1956 28.8144 32.8252 28.8144ZM30.7274 27.4746H32.1553V24.0781C32.1553 23.8321 32.2902 23.6053 32.5065 23.4885L34.8226 22.2367C34.5077 21.874 34.2703 21.4481 34.1258 20.9897L30.7274 22.8263V27.4746Z" fill="#438BE3"/>
<path d="M44.8245 28.8145H42.0567C41.6864 28.8145 41.3868 28.515 41.3868 28.1446V24.4782L38.5655 22.9537C38.354 22.8398 38.22 22.6206 38.2142 22.3795C38.2085 22.1393 38.3329 21.9143 38.5387 21.7899C39.1875 21.3995 39.5751 20.7142 39.5751 19.9582C39.5751 19.7218 39.6996 19.5007 39.9024 19.3801C40.1053 19.2595 40.3561 19.2509 40.5638 19.3639L45.1432 21.8387C45.3594 21.9555 45.4944 22.1823 45.4944 22.4283V28.1456C45.4944 28.514 45.1948 28.8145 44.8245 28.8145ZM42.7276 27.4747H44.1555V22.8274L40.7571 20.9908C40.6135 21.4502 40.3752 21.8751 40.0613 22.2388L42.3764 23.4896C42.5927 23.6064 42.7276 23.8332 42.7276 24.0792V27.4747Z" fill="#438BE3"/>
<path d="M37.442 23.431C36.8113 23.431 36.193 23.2596 35.6542 22.9362C34.6139 22.3122 33.967 21.1704 33.967 19.9579C33.9679 19.5674 34.0321 19.1884 34.1565 18.8248C34.4972 17.8419 35.2475 17.0705 36.217 16.7069C36.6055 16.5585 37.019 16.4829 37.442 16.4829C39.3532 16.4829 40.9112 18.039 40.916 19.9512V19.9521V19.9579C40.916 21.1704 40.27 22.3122 39.2297 22.9371C38.689 23.2606 38.0717 23.431 37.442 23.431ZM37.442 17.8228C37.1826 17.8228 36.929 17.8687 36.6907 17.9596C36.0935 18.1836 35.6322 18.6573 35.4236 19.2602C35.348 19.4832 35.3078 19.7177 35.3068 19.9541C35.3068 20.7139 35.6944 21.3973 36.3442 21.7868C36.6754 21.9858 37.0544 22.0902 37.442 22.0902C37.8296 22.0902 38.2085 21.9858 38.5406 21.7868C39.1885 21.3973 39.5761 20.712 39.5761 19.956L40.2461 19.9502L39.5761 19.9512C39.5733 18.7788 38.6162 17.8228 37.442 17.8228Z" fill="#438BE3"/>
<path d="M42.0577 35.2549H32.8262C32.4558 35.2549 32.1562 34.9554 32.1562 34.585V26.2617C32.1562 25.8913 32.4558 25.5918 32.8262 25.5918H42.0577C42.4281 25.5918 42.7276 25.8913 42.7276 26.2617V34.585C42.7276 34.9554 42.4271 35.2549 42.0577 35.2549ZM33.4951 33.9151H41.3868V26.9316H33.4951V33.9151Z" fill="#438BE3"/>
<path d="M27.8477 39.4629C27.8037 39.4629 27.7597 39.4581 27.7166 39.4495C27.6745 39.4409 27.6324 39.4275 27.5912 39.4112C27.551 39.394 27.5128 39.3739 27.4764 39.3499C27.4391 39.3251 27.4056 39.2973 27.374 39.2667C27.2496 39.1413 27.1778 38.969 27.1778 38.7929C27.1778 38.7489 27.1826 38.7049 27.1912 38.6618C27.1998 38.6188 27.2122 38.5767 27.2295 38.5365C27.2457 38.4963 27.2668 38.457 27.2907 38.4207C27.3156 38.3843 27.3434 38.3498 27.374 38.3192C27.4056 38.2876 27.4391 38.2599 27.4764 38.2359C27.5128 38.2111 27.551 38.191 27.5912 38.1737C27.6324 38.1575 27.6745 38.1441 27.7166 38.1355C27.9348 38.0924 28.1664 38.1632 28.3214 38.3192C28.353 38.3498 28.3808 38.3843 28.4047 38.4207C28.4296 38.457 28.4497 38.4963 28.4669 38.5365C28.4832 38.5767 28.4966 38.6188 28.5052 38.6618C28.5138 38.7049 28.5176 38.7489 28.5176 38.7929C28.5176 38.969 28.4468 39.1413 28.3214 39.2667C28.197 39.3911 28.0238 39.4629 27.8477 39.4629Z" fill="#438BE3"/>
<path d="M47.0352 45.876H27.8477C27.4773 45.876 27.1778 45.5765 27.1778 45.2061V40.7865C27.1778 40.4162 27.4773 40.1166 27.8477 40.1166C28.2181 40.1166 28.5176 40.4162 28.5176 40.7865V44.5362H46.3644V35.2559H28.5176V36.7995C28.5176 37.1699 28.2181 37.4695 27.8477 37.4695C27.4773 37.4695 27.1778 37.1699 27.1778 36.7995V34.5859C27.1778 34.2156 27.4773 33.916 27.8477 33.916H47.0343C47.4046 33.916 47.7042 34.2156 47.7042 34.5859V45.2061C47.7052 45.5755 47.4047 45.876 47.0352 45.876Z" fill="#438BE3"/>
<path d="M16.9127 45.876H1.96478C1.59441 45.876 1.29486 45.5764 1.29486 45.2061V38.4351C1.29486 38.0647 1.59441 37.7651 1.96478 37.7651H16.9127C17.283 37.7651 17.5826 38.0647 17.5826 38.4351V45.2061C17.5826 45.5755 17.283 45.876 16.9127 45.876ZM2.6347 44.5361H16.2427V39.105H2.6347V44.5361Z" fill="#438BE3"/>
</svg>
