<svg width="20" height="22" viewBox="0 0 20 22" fill="none" xmlns="http://www.w3.org/2000/svg">
<path d="M6.29082 13.272L7.13193 12.9113L6.37396 12.3984C4.64252 11.2268 3.5 9.23542 3.5 7C3.5 3.42199 6.42199 0.5 10 0.5C13.578 0.5 16.5 3.42199 16.5 7C16.5 9.23542 15.3575 11.2268 13.626 12.3984L12.8681 12.9113L13.7092 13.272C16.9563 14.6646 19.2924 17.806 19.4869 21.5H18.4857C18.2283 17.0274 14.5389 13.5 10 13.5C5.46106 13.5 1.77174 17.0274 1.51434 21.5H0.513133C0.707613 17.806 3.04374 14.6646 6.29082 13.272ZM15.5 7C15.5 3.95059 13.0494 1.5 10 1.5C6.95059 1.5 4.5 3.95059 4.5 7C4.5 10.0494 6.95059 12.5 10 12.5C13.0494 12.5 15.5 10.0494 15.5 7Z" fill="#333333" stroke="#333333"/>
</svg>
